<svg aria-hidden="true" style="width:0;height:0;position:absolute;overflow:hidden" xmlns="http://www.w3.org/2000/svg"><defs><symbol id="icon-card-pay" viewBox="0 0 36 28"><path d="M0 23.5V14h36v9.5c0 1.375-1.125 2.5-2.5 2.5h-31A2.507 2.507 0 0 1 0 23.5zM10 20v2h6v-2h-6zm-6 0v2h4v-2H4zM33.5 2C34.875 2 36 3.125 36 4.5V8H0V4.5C0 3.125 1.125 2 2.5 2h31z"/></symbol><symbol id="icon-car-done" viewBox="0 0 32 32"><path d="M6.897 11.896v2.139a.31.31 0 0 0 .31.309h.863c.019-.075.049-.146.076-.217.013-.035.022-.072.037-.107.053-.121.115-.237.188-.347.017-.024.037-.045.054-.069.06-.083.124-.163.195-.237.033-.034.068-.063.102-.094a2.065 2.065 0 0 1 .545-.366c.046-.021.091-.043.137-.061.084-.033.172-.059.261-.082.043-.011.084-.025.127-.033.135-.025.272-.042.414-.042s.279.017.414.042c.044.008.084.023.127.033.089.023.177.049.261.082.047.018.092.04.137.061.076.036.149.076.221.12.043.027.085.053.126.083.07.05.135.105.198.163.034.031.069.061.102.094.071.074.135.153.195.237.017.024.037.045.054.069.073.109.135.225.188.347.015.034.024.071.037.107.027.072.057.142.076.217h4.554c.019-.075.049-.146.076-.217.013-.035.022-.072.037-.107.053-.121.115-.237.188-.347.017-.024.037-.045.054-.069.06-.083.124-.163.195-.237.033-.034.068-.063.102-.094a2.065 2.065 0 0 1 .545-.366c.046-.021.09-.043.137-.061.084-.033.172-.059.261-.082.043-.011.084-.025.127-.033.135-.025.272-.042.414-.042s.279.017.414.042c.044.008.084.023.127.033.089.023.177.049.261.082.047.018.092.04.137.061.076.036.149.076.221.12.043.027.085.053.126.083.07.05.135.105.198.163.034.031.07.061.102.094.071.074.135.153.195.237.017.024.038.045.054.069.073.109.135.225.188.347.015.034.024.071.037.107.027.072.057.142.076.217h.863a.31.31 0 0 0 .31-.309v-2.139a.31.31 0 0 0-.31-.31H7.203a.31.31 0 0 0-.31.31zm10.966-3.871a.72.72 0 0 0-.586-.301h-2.104v2.759h4.445l-1.755-2.457zm-3.794-.301h-2.104a.725.725 0 0 0-.587.301l-1.755 2.457h4.445V7.723z"/><path d="M10.207 13.793a1.104 1.104 0 0 0 0 2.206 1.104 1.104 0 0 0 0-2.206zm8.827 0a1.104 1.104 0 1 0 .002 2.208 1.104 1.104 0 0 0-.002-2.208zM18.483 0h-7.724v3.31h7.724zm7.724 3.31v13.549c.79.219 1.53.551 2.207.979V1.654c0-.913-.743-1.655-1.655-1.655h-7.172v2.207h5.517c.608 0 1.103.495 1.103 1.103z"/><path d="M17.395 29.793H4.138a1.104 1.104 0 0 1-1.103-1.103V3.311c0-.609.495-1.103 1.103-1.103h5.517V.001H2.483C1.57.001.828.744.828 1.656v28.689c0 .913.742 1.655 1.655 1.655h17.406a8.334 8.334 0 0 1-2.494-2.207z"/><path d="M4.138 3.31v25.379h12.548a8.23 8.23 0 0 1-.962-3.862c0-4.563 3.713-8.276 8.276-8.276.375 0 .741.034 1.103.083V3.31h-5.517c0 .609-.495 1.103-1.103 1.103h-7.724A1.104 1.104 0 0 1 9.656 3.31H4.139zm10.483 23.172H6.345a.552.552 0 1 1 0-1.104h8.276a.552.552 0 1 1 0 1.104zm0-2.758H6.345a.552.552 0 1 1 0-1.104h8.276a.552.552 0 1 1 0 1.104zm0-2.759H6.345a.552.552 0 1 1 0-1.104h8.276a.552.552 0 1 1 0 1.104zm-4.14-13.581a1.827 1.827 0 0 1 1.484-.764h5.311c.588 0 1.143.286 1.484.764l2.213 3.098h1.061c.78 0 1.413.634 1.413 1.414v2.139c0 .779-.634 1.413-1.413 1.413h-.872c-.247.95-1.103 1.655-2.129 1.655s-1.882-.706-2.129-1.655h-4.57c-.247.95-1.103 1.655-2.129 1.655s-1.882-.706-2.129-1.655h-.872a1.415 1.415 0 0 1-1.413-1.413v-2.139c0-.779.634-1.413 1.413-1.413h1.062l2.213-3.098z"/><path d="M24 17.655c-3.955 0-7.172 3.218-7.172 7.172s3.218 7.172 7.172 7.172c3.955 0 7.172-3.218 7.172-7.172S27.955 17.655 24 17.655zm3.763 4.729-3.428 4.926a.553.553 0 0 1-.803.111l-2.641-2.168a.551.551 0 1 1 .699-.852l2.179 1.788 3.087-4.436a.552.552 0 0 1 .906.631z"/></symbol><symbol id="icon-car-time" viewBox="0 0 32 32"><path d="M30.621 30.896h-.552v-1.302c0-1.95-1.018-3.723-2.663-4.767 1.645-1.043 2.663-2.817 2.663-4.766v-1.303h.552a.552.552 0 1 0 0-1.104h-9.379v2.406c0 1.95 1.018 3.723 2.663 4.766-1.645 1.044-2.663 2.817-2.663 4.767v2.405h9.379a.552.552 0 1 0 0-1.104zm-8.276-10.835v-1.303h6.621v1.303c0 1.831-1.122 3.475-2.867 4.215h-.886c-1.746-.74-2.867-2.383-2.867-4.215zm6.62 10.835h-6.621v-1.302c0-1.831 1.122-3.475 2.867-4.215h.886c1.746.74 2.867 2.384 2.867 4.215v1.302zm-8.644-17.785c.07.05.135.105.198.163.034.031.07.061.102.094.071.074.135.153.195.237.017.024.038.045.053.069.073.109.136.225.189.347.015.034.024.071.037.107.027.072.056.142.076.218h.863a.31.31 0 0 0 .31-.31v-2.139a.31.31 0 0 0-.31-.309H7.205a.31.31 0 0 0-.309.309v2.139c0 .171.139.31.309.31h.864c.019-.076.049-.146.076-.218.013-.035.022-.072.037-.107.053-.121.116-.237.189-.347.016-.024.036-.045.054-.069.06-.083.124-.163.195-.237.032-.034.067-.063.102-.094a2.184 2.184 0 0 1 .323-.246 2.24 2.24 0 0 1 .221-.12c.045-.021.09-.043.137-.061.084-.033.172-.059.261-.081.043-.011.084-.025.127-.034.134-.025.272-.041.414-.041s.279.016.413.041c.044.008.085.023.128.034.089.023.177.048.261.081.047.018.092.04.137.061a2.133 2.133 0 0 1 .545.366c.034.031.069.061.102.094.071.074.135.153.195.237.017.024.037.045.053.069.073.109.136.225.189.347.015.034.024.071.037.107.027.072.056.142.076.218h4.554c.019-.076.049-.146.076-.218.013-.035.022-.072.037-.107.053-.121.116-.237.189-.347.016-.024.036-.045.054-.069.06-.083.124-.163.195-.237.032-.034.067-.063.102-.094a2.065 2.065 0 0 1 .545-.366c.045-.021.09-.043.137-.061.084-.033.172-.059.262-.081.043-.011.084-.025.127-.034.134-.025.272-.041.414-.041s.279.016.413.041c.044.008.085.023.128.034.089.023.177.048.261.081.047.018.092.04.137.061a2.133 2.133 0 0 1 .347.203zm-3.045-5.387h-2.104v2.759h4.445l-1.755-2.457a.72.72 0 0 0-.586-.301zm-5.311 0a.724.724 0 0 0-.586.301l-1.755 2.457h4.445V7.723h-2.104z"/><path d="M10.207 13.793a1.104 1.104 0 0 0 0 2.206 1.104 1.104 0 0 0 0-2.206zm8.828 0a1.104 1.104 0 1 0 .002 2.208 1.104 1.104 0 0 0-.002-2.208zM18.483 0h-7.724v3.31h7.724zm7.724 3.31v13.241h2.207V1.654c0-.913-.743-1.655-1.655-1.655h-7.172v2.207h5.517c.609 0 1.103.495 1.103 1.103z"/><path d="M3.034 28.69V3.311c0-.609.495-1.103 1.103-1.103h5.517V.001H2.482C1.569.001.827.744.827 1.656v28.69c0 .913.743 1.655 1.655 1.655h17.655v-2.207h-16a1.104 1.104 0 0 1-1.103-1.104z"/><path d="M20.138 20.061v-3.26c-.324.19-.7.303-1.103.303a2.205 2.205 0 0 1-2.129-1.655h-4.57c-.247.949-1.103 1.655-2.129 1.655s-1.882-.706-2.129-1.655h-.872c-.78 0-1.413-.634-1.413-1.413v-2.139c0-.78.634-1.413 1.413-1.413h1.062l2.213-3.098a1.827 1.827 0 0 1 1.484-.764h5.311c.588 0 1.143.286 1.484.764l2.213 3.098h1.061c.78 0 1.413.634 1.413 1.413v2.139c0 .78-.634 1.413-1.413 1.413h-.872a2.217 2.217 0 0 1-.686 1.103h4.627V3.311h-5.517c0 .609-.495 1.103-1.103 1.103h-7.724a1.104 1.104 0 0 1-1.103-1.103H4.139V28.69h16.065a6.709 6.709 0 0 1 1.94-3.862 6.688 6.688 0 0 1-2.005-4.767zm-5.517 6.422H6.345a.552.552 0 1 1 0-1.104h8.276a.552.552 0 1 1 0 1.104zm0-2.759H6.345a.552.552 0 1 1 0-1.104h8.276a.552.552 0 1 1 0 1.104zm0-2.759H6.345a.552.552 0 1 1 0-1.104h8.276a.552.552 0 1 1 0 1.104z"/></symbol><symbol id="icon-car-check" viewBox="0 0 32 32"><path d="M7.207 14.345h.863c.019-.075.049-.146.076-.217.013-.035.022-.072.037-.107.053-.121.115-.237.188-.347.017-.024.037-.045.054-.069.06-.083.124-.163.195-.237.033-.034.068-.063.102-.094a2.065 2.065 0 0 1 .545-.366c.046-.021.091-.043.137-.061.084-.033.172-.059.261-.082.043-.011.084-.025.127-.033.135-.025.272-.042.414-.042s.279.017.414.042c.044.008.084.023.127.033.089.023.177.049.261.082.047.018.092.04.137.061.076.036.149.076.221.12.043.027.085.053.126.083.07.05.135.105.198.163.034.031.069.061.102.094.071.074.135.153.195.237.017.024.037.045.054.069.073.109.135.225.188.347.015.034.024.071.037.107.027.072.057.142.076.217h4.554c.019-.075.049-.146.076-.217.013-.035.022-.072.037-.107.053-.121.115-.237.188-.347.017-.024.037-.045.054-.069.06-.083.124-.163.195-.237.033-.034.068-.063.102-.094a2.065 2.065 0 0 1 .545-.366c.046-.021.09-.043.137-.061.084-.033.172-.059.261-.082.043-.011.084-.025.127-.033.135-.025.272-.042.414-.042s.279.017.414.042c.044.008.084.023.127.033.089.023.177.049.261.082.047.018.092.04.137.061.076.036.149.076.221.12.043.027.085.053.126.083.07.05.135.105.198.163.034.031.07.061.102.094.071.074.135.153.195.237.017.024.038.045.054.069.073.109.135.225.188.347.015.034.024.071.037.107.027.072.057.142.076.217h.863a.31.31 0 0 0 .31-.309v-2.139a.31.31 0 0 0-.31-.31H7.203a.31.31 0 0 0-.31.31v2.139a.31.31 0 0 0 .31.309zm10.656-6.32a.72.72 0 0 0-.586-.301h-2.104v2.759h4.445l-1.755-2.457zm-3.794-.301h-2.104a.725.725 0 0 0-.587.301l-1.755 2.457h4.445V7.723z"/><path d="M10.207 13.793a1.104 1.104 0 0 0 0 2.206 1.104 1.104 0 0 0 0-2.206zm8.828 0a1.104 1.104 0 1 0 .002 2.208 1.104 1.104 0 0 0-.002-2.208zM18.483 0h-7.724v3.31h7.724zm7.724 3.31v13.795a7.192 7.192 0 0 1 2.207 1.455V1.655C28.414.742 27.671 0 26.759 0h-7.172v2.207h5.517c.608 0 1.103.495 1.103 1.103z"/><path d="M23.448 30.897a7.12 7.12 0 0 1-3.805-1.103H4.137a1.104 1.104 0 0 1-1.103-1.103V3.312c0-.609.495-1.103 1.103-1.103h5.517V.002H2.482C1.569.002.827.745.827 1.657v28.69c0 .913.743 1.655 1.655 1.655h20.965s.175-1.103 0-1.103z"/><path d="M4.138 28.69h14.147a7.141 7.141 0 0 1-2.009-4.965c0-3.955 3.218-7.172 7.172-7.172.57 0 1.123.074 1.655.201V3.312h-5.517c0 .609-.495 1.103-1.103 1.103h-7.724a1.104 1.104 0 0 1-1.103-1.103H4.139v25.379zm1.655-16.794c0-.779.634-1.413 1.413-1.413h1.062l2.213-3.098a1.827 1.827 0 0 1 1.484-.764h5.311c.588 0 1.143.286 1.484.764l2.213 3.098h1.061c.78 0 1.413.634 1.413 1.413v2.139c0 .779-.634 1.413-1.413 1.413h-.872c-.247.95-1.103 1.655-2.129 1.655s-1.882-.706-2.129-1.655h-4.57c-.247.95-1.103 1.655-2.129 1.655s-1.882-.706-2.129-1.655h-.872a1.415 1.415 0 0 1-1.413-1.413v-2.139zm.552 7.966h8.276a.552.552 0 1 1 0 1.104H6.345a.552.552 0 1 1 0-1.104zm0 2.759h8.276a.552.552 0 1 1 0 1.104H6.345a.552.552 0 1 1 0-1.104zm0 2.758h8.276a.552.552 0 1 1 0 1.104H6.345a.552.552 0 1 1 0-1.104z"/><path d="m31.021 31.069-3.097-3.259a6.04 6.04 0 0 0 1.594-4.085c0-3.346-2.723-6.069-6.069-6.069s-6.069 2.723-6.069 6.069a6.076 6.076 0 0 0 6.069 6.069 6.026 6.026 0 0 0 3.66-1.24l3.112 3.274a.548.548 0 0 0 .78.02.55.55 0 0 0 .02-.779zm-7.573-2.379c-2.738 0-4.965-2.227-4.965-4.965s2.227-4.965 4.965-4.965 4.965 2.227 4.965 4.965-2.227 4.965-4.965 4.965z"/></symbol><symbol id="icon-arrow" viewBox="0 0 24 24"><path d="m5.859 4.125 2.156-2.109L17.999 12l-9.984 9.984-2.156-2.109L13.781 12z"/></symbol><symbol id="icon-car-paint" viewBox="0 0 32 32"><path d="M29.058 27.813c-3.104 0-4.026-2.466-4.271-3.451l.886-.306a.501.501 0 0 0 .307-.639l.001.003-2.75-7.929h3.281a.5.5 0 0 0 .5-.5v-.846h1.096v.834a.5.5 0 0 0 1 0v-2.666a.5.5 0 0 0-1 0v.834h-1.095v-2.169a.5.5 0 0 0-.5-.5h-8.172V8.993a3.472 3.472 0 0 0 2.188-3.212V4.187h.52a.5.5 0 0 0 0-1h-7.953a.5.5 0 0 0 0 1h.521V5.78a3.464 3.464 0 0 0 2.164 3.204l.023.008v1.485h-5.291a.5.5 0 0 0-.5.5v.227l-2.214 1.278H6.98a.5.5 0 0 0 0 1h.819l2.214 1.278v.227a.5.5 0 0 0 .5.5h3.506v4.616l-1.156 1.156a.5.5 0 0 0 .708.706l1.305-1.302a.596.596 0 0 0 .034-.037l.012-.017.016-.023.013-.021.012-.021.011-.023.01-.022.008-.023a.102.102 0 0 0 .008-.023v-.001c0-.008.004-.015.006-.023l.006-.024.004-.027v-.021l.001-.025-.001-.026v.001-4.823h2.864c.901 0 1.668.576 1.954 1.379l.005.015 2.681 7.734a.501.501 0 0 0 .639.307l-.003.001.688-.238c.181.665.44 1.247.774 1.777l-.016-.027c.682 1.082 2.009 2.375 4.458 2.375a.5.5 0 0 0 0-1zM16.804 9.226h.018c.028 0 .056.004.084.005h.329c.029 0 .058 0 .087-.005h.017v1.25h-.537zm-2.187-3.445V4.188h4.912V5.782a2.454 2.454 0 0 1-2.831 2.425l.014.002a2.236 2.236 0 0 1-.292-.061l.016.004a2.467 2.467 0 0 1-1.818-2.37zm-5.684 7.203 1.08-.625v1.25zm13.459 8.207-.892-2.577c.089.04.167.087.237.142l-.002-.002c.282.216.527.578.67.991.199.579.158 1.126-.012 1.446zm.366 1.055c.736-.487 1-1.648.59-2.828-.209-.602-.566-1.119-1.006-1.457-.382-.293-.806-.429-1.207-.398l-.349-1.007a3.082 3.082 0 0 0-2.903-2.067l-6.869-.006V11.478h15v3.011h-3.482a.5.5 0 0 0-.471.667l-.001-.004 2.813 8.121-.821.284h-.004l-.746.258zm-18.07-8.762H2.942a.5.5 0 0 1 0-1h1.746a.5.5 0 0 1 0 1zm.868-1.875a.5.5 0 0 1-.685.182l.002.001-1.51-.875a.5.5 0 1 1 .503-.864l1.508.874a.5.5 0 0 1 .18.686l.001-.002zm0 2.75a.5.5 0 0 1-.18.682l-.002.001-1.51.875a.5.5 0 0 1-.502-.865l.002-.001 1.51-.875a.499.499 0 0 1 .68.181l.001.002z"/></symbol><symbol id="icon-car-polishing" viewBox="0 0 32 32"><path stroke-linejoin="round" stroke-linecap="round" stroke-miterlimit="10" stroke-width="2" d="M31 22.6c-.9.2-1.8 0-2.1-.6-.4-.6-.1-1.4.5-2.1-.7-.7-1.7-1.3-2.7-1.6-.3.9-.9 1.5-1.6 1.5s-1.3-.6-1.6-1.5c-1 .3-2 .8-2.7 1.6.6.7.9 1.5.5 2.1s-1.2.8-2.1.6c-.1.5-.2 1-.2 1.6s.1 1.1.2 1.6c.9-.2 1.8 0 2.1.6.4.6.1 1.4-.5 2.1.7.7 1.7 1.3 2.7 1.6.3-.9.9-1.5 1.6-1.5s1.3.6 1.6 1.5c1-.3 2-.8 2.7-1.6-.6-.7-.9-1.5-.5-2.1s1.2-.8 2.1-.6c.1-.5.2-1 .2-1.6s-.1-1.1-.2-1.6zM24 13H4l2-4.6C6.6 7 8 6 9.6 6h8.7c1.6 0 3 1 3.7 2.4l2 4.6zM8 23H2v2c0 1.1.9 2 2 2h2c1.1 0 2-.9 2-2v-2zM1 12h3.4M24 12h3M19 23H9l1.4-2.9c.3-.7 1-1.1 1.8-1.1h3.5c.8 0 1.5.4 1.8 1.1L19 23zM4 18h3"/><path stroke-linejoin="round" stroke-linecap="round" stroke-miterlimit="10" stroke-width="2" d="M19.3 23H3c-1.1 0-2-.9-2-2v-4c0-2.2 1.8-4 4-4h18c2.2 0 4 1.8 4 4v1.3"/></symbol><symbol id="icon-vacuum-cleaner" viewBox="0 0 32 32"><path d="M14.75 25.45c.9 0 1.7-.75 1.7-1.7s-.75-1.7-1.7-1.7-1.7.75-1.7 1.7.8 1.7 1.7 1.7zm0-2.5c.45 0 .8.35.8.8s-.35.8-.8.8-.8-.35-.8-.8.35-.8.8-.8z"/><path d="M30.4 29h-1.9V5c0-2.9-2.1-5-5-5s-5 2.1-5 5v7c0 .95-.55 1.5-1.5 1.5-1 0-1.5-.5-1.5-1.55V11c0-3-2.05-4.95-5-4.95-3.45 0-5 2.45-5 4.95v6.25C2.5 18.05 0 20.5 0 24c0 .75.15 1.6.5 2.65V27c0 2.75 2.2 5 4.95 5H30.4c1 0 1.6-.55 1.6-1.5s-.6-1.5-1.6-1.5zM6.5 11c0-1.95 1.05-4 4-4 2.4 0 4 1.6 4 3.95v1c0 1.6.95 2.55 2.5 2.55 1.5 0 2.5-1 2.5-2.5V5c0-2.35 1.65-4 4-4s4 1.65 4 4v3H26V5c0-1.6-.9-2.5-2.5-2.5-1.55 0-2.5.95-2.5 2.5v6.5c0 2.15-1.25 4.5-4 4.5-2.35 0-4-1.65-4-4v-1c0-1.6-.9-2.5-2.5-2.5C9.35 8.5 8 8.95 8 11v6h-.5c-.35 0-.5.05-1 .1V11zm21-2v20H26V9h1.5zM1 24c0-3.7 3.35-6 6.5-6 9.5 0 13.25 6.6 13.9 10h-11c.05-.3.1-.65.1-1 0-2.75-2.25-5-5-5-1.95 0-3.6 1.1-4.45 2.7C1 24.45 1 24.2 1 24zm4.5 7c-2.2 0-4-1.8-4-4s1.8-4 4-4 4 1.8 4 4-1.8 4-4 4zm4.55-2H22.5c0-3.85-4-11.2-13.5-11.95V11c0-1.1.4-1.5 1.5-1.5 1.05 0 1.5.45 1.5 1.5v1c0 2.9 2.1 5 5 5 3.3 0 5-2.75 5-5.5V5c0-1 .5-1.5 1.5-1.5 1.05 0 1.5.45 1.5 1.5v24h-2.4c-1 0-1.6.55-1.6 1.5 0 .2.05.35.05.5H8.5c.65-.5 1.25-1.2 1.55-2zm20.35 2h-7.8c-.55 0-.6-.25-.6-.5s.05-.5.6-.5h7.8c.55 0 .6.25.6.5s-.05.5-.6.5z"/></symbol><symbol id="icon-arrow-right2" viewBox="0 0 32 32"><path d="m19.414 27.414 10-10a2 2 0 0 0 0-2.828l-10-10a2 2 0 1 0-2.828 2.828L23.172 14H4a2 2 0 1 0 0 4h19.172l-6.586 6.586c-.39.39-.586.902-.586 1.414s.195 1.024.586 1.414a2 2 0 0 0 2.828 0z"/></symbol></defs></svg>