<svg aria-hidden="true" style="width:0;height:0;position:absolute;overflow:hidden" xmlns="http://www.w3.org/2000/svg"><defs><symbol id="icon-card-pay" viewBox="0 0 36 28"><path d="M0 23.5V14h36v9.5c0 1.375-1.125 2.5-2.5 2.5h-31A2.507 2.507 0 0 1 0 23.5zM10 20v2h6v-2h-6zm-6 0v2h4v-2H4zM33.5 2C34.875 2 36 3.125 36 4.5V8H0V4.5C0 3.125 1.125 2 2.5 2h31z"/></symbol><symbol id="icon-car-done" viewBox="0 0 32 32"><path d="M6.897 11.896v2.139a.31.31 0 0 0 .31.309h.863c.019-.075.049-.146.076-.217.013-.035.022-.072.037-.107.053-.121.115-.237.188-.347.017-.024.037-.045.054-.069.06-.083.124-.163.195-.237.033-.034.068-.063.102-.094a2.065 2.065 0 0 1 .545-.366c.046-.021.091-.043.137-.061.084-.033.172-.059.261-.082.043-.011.084-.025.127-.033.135-.025.272-.042.414-.042s.279.017.414.042c.044.008.084.023.127.033.089.023.177.049.261.082.047.018.092.04.137.061.076.036.149.076.221.12.043.027.085.053.126.083.07.05.135.105.198.163.034.031.069.061.102.094.071.074.135.153.195.237.017.024.037.045.054.069.073.109.135.225.188.347.015.034.024.071.037.107.027.072.057.142.076.217h4.554c.019-.075.049-.146.076-.217.013-.035.022-.072.037-.107.053-.121.115-.237.188-.347.017-.024.037-.045.054-.069.06-.083.124-.163.195-.237.033-.034.068-.063.102-.094a2.065 2.065 0 0 1 .545-.366c.046-.021.09-.043.137-.061.084-.033.172-.059.261-.082.043-.011.084-.025.127-.033.135-.025.272-.042.414-.042s.279.017.414.042c.044.008.084.023.127.033.089.023.177.049.261.082.047.018.092.04.137.061.076.036.149.076.221.12.043.027.085.053.126.083.07.05.135.105.198.163.034.031.07.061.102.094.071.074.135.153.195.237.017.024.038.045.054.069.073.109.135.225.188.347.015.034.024.071.037.107.027.072.057.142.076.217h.863a.31.31 0 0 0 .31-.309v-2.139a.31.31 0 0 0-.31-.31H7.203a.31.31 0 0 0-.31.31zm10.966-3.871a.72.72 0 0 0-.586-.301h-2.104v2.759h4.445l-1.755-2.457zm-3.794-.301h-2.104a.725.725 0 0 0-.587.301l-1.755 2.457h4.445V7.723z"/><path d="M10.207 13.793a1.104 1.104 0 0 0 0 2.206 1.104 1.104 0 0 0 0-2.206zm8.827 0a1.104 1.104 0 1 0 .002 2.208 1.104 1.104 0 0 0-.002-2.208zM18.483 0h-7.724v3.31h7.724zm7.724 3.31v13.549c.79.219 1.53.551 2.207.979V1.654c0-.913-.743-1.655-1.655-1.655h-7.172v2.207h5.517c.608 0 1.103.495 1.103 1.103z"/><path d="M17.395 29.793H4.138a1.104 1.104 0 0 1-1.103-1.103V3.311c0-.609.495-1.103 1.103-1.103h5.517V.001H2.483C1.57.001.828.744.828 1.656v28.689c0 .913.742 1.655 1.655 1.655h17.406a8.334 8.334 0 0 1-2.494-2.207z"/><path d="M4.138 3.31v25.379h12.548a8.23 8.23 0 0 1-.962-3.862c0-4.563 3.713-8.276 8.276-8.276.375 0 .741.034 1.103.083V3.31h-5.517c0 .609-.495 1.103-1.103 1.103h-7.724A1.104 1.104 0 0 1 9.656 3.31H4.139zm10.483 23.172H6.345a.552.552 0 1 1 0-1.104h8.276a.552.552 0 1 1 0 1.104zm0-2.758H6.345a.552.552 0 1 1 0-1.104h8.276a.552.552 0 1 1 0 1.104zm0-2.759H6.345a.552.552 0 1 1 0-1.104h8.276a.552.552 0 1 1 0 1.104zm-4.14-13.581a1.827 1.827 0 0 1 1.484-.764h5.311c.588 0 1.143.286 1.484.764l2.213 3.098h1.061c.78 0 1.413.634 1.413 1.414v2.139c0 .779-.634 1.413-1.413 1.413h-.872c-.247.95-1.103 1.655-2.129 1.655s-1.882-.706-2.129-1.655h-4.57c-.247.95-1.103 1.655-2.129 1.655s-1.882-.706-2.129-1.655h-.872a1.415 1.415 0 0 1-1.413-1.413v-2.139c0-.779.634-1.413 1.413-1.413h1.062l2.213-3.098z"/><path d="M24 17.655c-3.955 0-7.172 3.218-7.172 7.172s3.218 7.172 7.172 7.172c3.955 0 7.172-3.218 7.172-7.172S27.955 17.655 24 17.655zm3.763 4.729-3.428 4.926a.553.553 0 0 1-.803.111l-2.641-2.168a.551.551 0 1 1 .699-.852l2.179 1.788 3.087-4.436a.552.552 0 0 1 .906.631z"/></symbol><symbol id="icon-car-time" viewBox="0 0 32 32"><path d="M30.621 30.896h-.552v-1.302c0-1.95-1.018-3.723-2.663-4.767 1.645-1.043 2.663-2.817 2.663-4.766v-1.303h.552a.552.552 0 1 0 0-1.104h-9.379v2.406c0 1.95 1.018 3.723 2.663 4.766-1.645 1.044-2.663 2.817-2.663 4.767v2.405h9.379a.552.552 0 1 0 0-1.104zm-8.276-10.835v-1.303h6.621v1.303c0 1.831-1.122 3.475-2.867 4.215h-.886c-1.746-.74-2.867-2.383-2.867-4.215zm6.62 10.835h-6.621v-1.302c0-1.831 1.122-3.475 2.867-4.215h.886c1.746.74 2.867 2.384 2.867 4.215v1.302zm-8.644-17.785c.07.05.135.105.198.163.034.031.07.061.102.094.071.074.135.153.195.237.017.024.038.045.053.069.073.109.136.225.189.347.015.034.024.071.037.107.027.072.056.142.076.218h.863a.31.31 0 0 0 .31-.31v-2.139a.31.31 0 0 0-.31-.309H7.205a.31.31 0 0 0-.309.309v2.139c0 .171.139.31.309.31h.864c.019-.076.049-.146.076-.218.013-.035.022-.072.037-.107.053-.121.116-.237.189-.347.016-.024.036-.045.054-.069.06-.083.124-.163.195-.237.032-.034.067-.063.102-.094a2.184 2.184 0 0 1 .323-.246 2.24 2.24 0 0 1 .221-.12c.045-.021.09-.043.137-.061.084-.033.172-.059.261-.081.043-.011.084-.025.127-.034.134-.025.272-.041.414-.041s.279.016.413.041c.044.008.085.023.128.034.089.023.177.048.261.081.047.018.092.04.137.061a2.133 2.133 0 0 1 .545.366c.034.031.069.061.102.094.071.074.135.153.195.237.017.024.037.045.053.069.073.109.136.225.189.347.015.034.024.071.037.107.027.072.056.142.076.218h4.554c.019-.076.049-.146.076-.218.013-.035.022-.072.037-.107.053-.121.116-.237.189-.347.016-.024.036-.045.054-.069.06-.083.124-.163.195-.237.032-.034.067-.063.102-.094a2.065 2.065 0 0 1 .545-.366c.045-.021.09-.043.137-.061.084-.033.172-.059.262-.081.043-.011.084-.025.127-.034.134-.025.272-.041.414-.041s.279.016.413.041c.044.008.085.023.128.034.089.023.177.048.261.081.047.018.092.04.137.061a2.133 2.133 0 0 1 .347.203zm-3.045-5.387h-2.104v2.759h4.445l-1.755-2.457a.72.72 0 0 0-.586-.301zm-5.311 0a.724.724 0 0 0-.586.301l-1.755 2.457h4.445V7.723h-2.104z"/><path d="M10.207 13.793a1.104 1.104 0 0 0 0 2.206 1.104 1.104 0 0 0 0-2.206zm8.828 0a1.104 1.104 0 1 0 .002 2.208 1.104 1.104 0 0 0-.002-2.208zM18.483 0h-7.724v3.31h7.724zm7.724 3.31v13.241h2.207V1.654c0-.913-.743-1.655-1.655-1.655h-7.172v2.207h5.517c.609 0 1.103.495 1.103 1.103z"/><path d="M3.034 28.69V3.311c0-.609.495-1.103 1.103-1.103h5.517V.001H2.482C1.569.001.827.744.827 1.656v28.69c0 .913.743 1.655 1.655 1.655h17.655v-2.207h-16a1.104 1.104 0 0 1-1.103-1.104z"/><path d="M20.138 20.061v-3.26c-.324.19-.7.303-1.103.303a2.205 2.205 0 0 1-2.129-1.655h-4.57c-.247.949-1.103 1.655-2.129 1.655s-1.882-.706-2.129-1.655h-.872c-.78 0-1.413-.634-1.413-1.413v-2.139c0-.78.634-1.413 1.413-1.413h1.062l2.213-3.098a1.827 1.827 0 0 1 1.484-.764h5.311c.588 0 1.143.286 1.484.764l2.213 3.098h1.061c.78 0 1.413.634 1.413 1.413v2.139c0 .78-.634 1.413-1.413 1.413h-.872a2.217 2.217 0 0 1-.686 1.103h4.627V3.311h-5.517c0 .609-.495 1.103-1.103 1.103h-7.724a1.104 1.104 0 0 1-1.103-1.103H4.139V28.69h16.065a6.709 6.709 0 0 1 1.94-3.862 6.688 6.688 0 0 1-2.005-4.767zm-5.517 6.422H6.345a.552.552 0 1 1 0-1.104h8.276a.552.552 0 1 1 0 1.104zm0-2.759H6.345a.552.552 0 1 1 0-1.104h8.276a.552.552 0 1 1 0 1.104zm0-2.759H6.345a.552.552 0 1 1 0-1.104h8.276a.552.552 0 1 1 0 1.104z"/></symbol><symbol id="icon-car-check" viewBox="0 0 32 32"><path d="M7.207 14.345h.863c.019-.075.049-.146.076-.217.013-.035.022-.072.037-.107.053-.121.115-.237.188-.347.017-.024.037-.045.054-.069.06-.083.124-.163.195-.237.033-.034.068-.063.102-.094a2.065 2.065 0 0 1 .545-.366c.046-.021.091-.043.137-.061.084-.033.172-.059.261-.082.043-.011.084-.025.127-.033.135-.025.272-.042.414-.042s.279.017.414.042c.044.008.084.023.127.033.089.023.177.049.261.082.047.018.092.04.137.061.076.036.149.076.221.12.043.027.085.053.126.083.07.05.135.105.198.163.034.031.069.061.102.094.071.074.135.153.195.237.017.024.037.045.054.069.073.109.135.225.188.347.015.034.024.071.037.107.027.072.057.142.076.217h4.554c.019-.075.049-.146.076-.217.013-.035.022-.072.037-.107.053-.121.115-.237.188-.347.017-.024.037-.045.054-.069.06-.083.124-.163.195-.237.033-.034.068-.063.102-.094a2.065 2.065 0 0 1 .545-.366c.046-.021.09-.043.137-.061.084-.033.172-.059.261-.082.043-.011.084-.025.127-.033.135-.025.272-.042.414-.042s.279.017.414.042c.044.008.084.023.127.033.089.023.177.049.261.082.047.018.092.04.137.061.076.036.149.076.221.12.043.027.085.053.126.083.07.05.135.105.198.163.034.031.07.061.102.094.071.074.135.153.195.237.017.024.038.045.054.069.073.109.135.225.188.347.015.034.024.071.037.107.027.072.057.142.076.217h.863a.31.31 0 0 0 .31-.309v-2.139a.31.31 0 0 0-.31-.31H7.203a.31.31 0 0 0-.31.31v2.139a.31.31 0 0 0 .31.309zm10.656-6.32a.72.72 0 0 0-.586-.301h-2.104v2.759h4.445l-1.755-2.457zm-3.794-.301h-2.104a.725.725 0 0 0-.587.301l-1.755 2.457h4.445V7.723z"/><path d="M10.207 13.793a1.104 1.104 0 0 0 0 2.206 1.104 1.104 0 0 0 0-2.206zm8.828 0a1.104 1.104 0 1 0 .002 2.208 1.104 1.104 0 0 0-.002-2.208zM18.483 0h-7.724v3.31h7.724zm7.724 3.31v13.795a7.192 7.192 0 0 1 2.207 1.455V1.655C28.414.742 27.671 0 26.759 0h-7.172v2.207h5.517c.608 0 1.103.495 1.103 1.103z"/><path d="M23.448 30.897a7.12 7.12 0 0 1-3.805-1.103H4.137a1.104 1.104 0 0 1-1.103-1.103V3.312c0-.609.495-1.103 1.103-1.103h5.517V.002H2.482C1.569.002.827.745.827 1.657v28.69c0 .913.743 1.655 1.655 1.655h20.965s.175-1.103 0-1.103z"/><path d="M4.138 28.69h14.147a7.141 7.141 0 0 1-2.009-4.965c0-3.955 3.218-7.172 7.172-7.172.57 0 1.123.074 1.655.201V3.312h-5.517c0 .609-.495 1.103-1.103 1.103h-7.724a1.104 1.104 0 0 1-1.103-1.103H4.139v25.379zm1.655-16.794c0-.779.634-1.413 1.413-1.413h1.062l2.213-3.098a1.827 1.827 0 0 1 1.484-.764h5.311c.588 0 1.143.286 1.484.764l2.213 3.098h1.061c.78 0 1.413.634 1.413 1.413v2.139c0 .779-.634 1.413-1.413 1.413h-.872c-.247.95-1.103 1.655-2.129 1.655s-1.882-.706-2.129-1.655h-4.57c-.247.95-1.103 1.655-2.129 1.655s-1.882-.706-2.129-1.655h-.872a1.415 1.415 0 0 1-1.413-1.413v-2.139zm.552 7.966h8.276a.552.552 0 1 1 0 1.104H6.345a.552.552 0 1 1 0-1.104zm0 2.759h8.276a.552.552 0 1 1 0 1.104H6.345a.552.552 0 1 1 0-1.104zm0 2.758h8.276a.552.552 0 1 1 0 1.104H6.345a.552.552 0 1 1 0-1.104z"/><path d="m31.021 31.069-3.097-3.259a6.04 6.04 0 0 0 1.594-4.085c0-3.346-2.723-6.069-6.069-6.069s-6.069 2.723-6.069 6.069a6.076 6.076 0 0 0 6.069 6.069 6.026 6.026 0 0 0 3.66-1.24l3.112 3.274a.548.548 0 0 0 .78.02.55.55 0 0 0 .02-.779zm-7.573-2.379c-2.738 0-4.965-2.227-4.965-4.965s2.227-4.965 4.965-4.965 4.965 2.227 4.965 4.965-2.227 4.965-4.965 4.965z"/></symbol><symbol id="icon-arrow" viewBox="0 0 24 24"><path d="m5.859 4.125 2.156-2.109L17.999 12l-9.984 9.984-2.156-2.109L13.781 12z"/></symbol><symbol id="icon-car-paint" viewBox="0 0 32 32"><path d="M29.058 27.813c-3.104 0-4.026-2.466-4.271-3.451l.886-.306a.501.501 0 0 0 .307-.639l.001.003-2.75-7.929h3.281a.5.5 0 0 0 .5-.5v-.846h1.096v.834a.5.5 0 0 0 1 0v-2.666a.5.5 0 0 0-1 0v.834h-1.095v-2.169a.5.5 0 0 0-.5-.5h-8.172V8.993a3.472 3.472 0 0 0 2.188-3.212V4.187h.52a.5.5 0 0 0 0-1h-7.953a.5.5 0 0 0 0 1h.521V5.78a3.464 3.464 0 0 0 2.164 3.204l.023.008v1.485h-5.291a.5.5 0 0 0-.5.5v.227l-2.214 1.278H6.98a.5.5 0 0 0 0 1h.819l2.214 1.278v.227a.5.5 0 0 0 .5.5h3.506v4.616l-1.156 1.156a.5.5 0 0 0 .708.706l1.305-1.302a.596.596 0 0 0 .034-.037l.012-.017.016-.023.013-.021.012-.021.011-.023.01-.022.008-.023a.102.102 0 0 0 .008-.023v-.001c0-.008.004-.015.006-.023l.006-.024.004-.027v-.021l.001-.025-.001-.026v.001-4.823h2.864c.901 0 1.668.576 1.954 1.379l.005.015 2.681 7.734a.501.501 0 0 0 .639.307l-.003.001.688-.238c.181.665.44 1.247.774 1.777l-.016-.027c.682 1.082 2.009 2.375 4.458 2.375a.5.5 0 0 0 0-1zM16.804 9.226h.018c.028 0 .056.004.084.005h.329c.029 0 .058 0 .087-.005h.017v1.25h-.537zm-2.187-3.445V4.188h4.912V5.782a2.454 2.454 0 0 1-2.831 2.425l.014.002a2.236 2.236 0 0 1-.292-.061l.016.004a2.467 2.467 0 0 1-1.818-2.37zm-5.684 7.203 1.08-.625v1.25zm13.459 8.207-.892-2.577c.089.04.167.087.237.142l-.002-.002c.282.216.527.578.67.991.199.579.158 1.126-.012 1.446zm.366 1.055c.736-.487 1-1.648.59-2.828-.209-.602-.566-1.119-1.006-1.457-.382-.293-.806-.429-1.207-.398l-.349-1.007a3.082 3.082 0 0 0-2.903-2.067l-6.869-.006V11.478h15v3.011h-3.482a.5.5 0 0 0-.471.667l-.001-.004 2.813 8.121-.821.284h-.004l-.746.258zm-18.07-8.762H2.942a.5.5 0 0 1 0-1h1.746a.5.5 0 0 1 0 1zm.868-1.875a.5.5 0 0 1-.685.182l.002.001-1.51-.875a.5.5 0 1 1 .503-.864l1.508.874a.5.5 0 0 1 .18.686l.001-.002zm0 2.75a.5.5 0 0 1-.18.682l-.002.001-1.51.875a.5.5 0 0 1-.502-.865l.002-.001 1.51-.875a.499.499 0 0 1 .68.181l.001.002z"/></symbol><symbol id="icon-car-polishing" viewBox="0 0 32 32"><path stroke-linejoin="round" stroke-linecap="round" stroke-miterlimit="10" stroke-width="2" d="M31 22.6c-.9.2-1.8 0-2.1-.6-.4-.6-.1-1.4.5-2.1-.7-.7-1.7-1.3-2.7-1.6-.3.9-.9 1.5-1.6 1.5s-1.3-.6-1.6-1.5c-1 .3-2 .8-2.7 1.6.6.7.9 1.5.5 2.1s-1.2.8-2.1.6c-.1.5-.2 1-.2 1.6s.1 1.1.2 1.6c.9-.2 1.8 0 2.1.6.4.6.1 1.4-.5 2.1.7.7 1.7 1.3 2.7 1.6.3-.9.9-1.5 1.6-1.5s1.3.6 1.6 1.5c1-.3 2-.8 2.7-1.6-.6-.7-.9-1.5-.5-2.1s1.2-.8 2.1-.6c.1-.5.2-1 .2-1.6s-.1-1.1-.2-1.6zM24 13H4l2-4.6C6.6 7 8 6 9.6 6h8.7c1.6 0 3 1 3.7 2.4l2 4.6zM8 23H2v2c0 1.1.9 2 2 2h2c1.1 0 2-.9 2-2v-2zM1 12h3.4M24 12h3M19 23H9l1.4-2.9c.3-.7 1-1.1 1.8-1.1h3.5c.8 0 1.5.4 1.8 1.1L19 23zM4 18h3"/><path stroke-linejoin="round" stroke-linecap="round" stroke-miterlimit="10" stroke-width="2" d="M19.3 23H3c-1.1 0-2-.9-2-2v-4c0-2.2 1.8-4 4-4h18c2.2 0 4 1.8 4 4v1.3"/></symbol><symbol id="icon-vacuum-cleaner" viewBox="0 0 32 32"><path d="M14.75 25.45c.9 0 1.7-.75 1.7-1.7s-.75-1.7-1.7-1.7-1.7.75-1.7 1.7.8 1.7 1.7 1.7zm0-2.5c.45 0 .8.35.8.8s-.35.8-.8.8-.8-.35-.8-.8.35-.8.8-.8z"/><path d="M30.4 29h-1.9V5c0-2.9-2.1-5-5-5s-5 2.1-5 5v7c0 .95-.55 1.5-1.5 1.5-1 0-1.5-.5-1.5-1.55V11c0-3-2.05-4.95-5-4.95-3.45 0-5 2.45-5 4.95v6.25C2.5 18.05 0 20.5 0 24c0 .75.15 1.6.5 2.65V27c0 2.75 2.2 5 4.95 5H30.4c1 0 1.6-.55 1.6-1.5s-.6-1.5-1.6-1.5zM6.5 11c0-1.95 1.05-4 4-4 2.4 0 4 1.6 4 3.95v1c0 1.6.95 2.55 2.5 2.55 1.5 0 2.5-1 2.5-2.5V5c0-2.35 1.65-4 4-4s4 1.65 4 4v3H26V5c0-1.6-.9-2.5-2.5-2.5-1.55 0-2.5.95-2.5 2.5v6.5c0 2.15-1.25 4.5-4 4.5-2.35 0-4-1.65-4-4v-1c0-1.6-.9-2.5-2.5-2.5C9.35 8.5 8 8.95 8 11v6h-.5c-.35 0-.5.05-1 .1V11zm21-2v20H26V9h1.5zM1 24c0-3.7 3.35-6 6.5-6 9.5 0 13.25 6.6 13.9 10h-11c.05-.3.1-.65.1-1 0-2.75-2.25-5-5-5-1.95 0-3.6 1.1-4.45 2.7C1 24.45 1 24.2 1 24zm4.5 7c-2.2 0-4-1.8-4-4s1.8-4 4-4 4 1.8 4 4-1.8 4-4 4zm4.55-2H22.5c0-3.85-4-11.2-13.5-11.95V11c0-1.1.4-1.5 1.5-1.5 1.05 0 1.5.45 1.5 1.5v1c0 2.9 2.1 5 5 5 3.3 0 5-2.75 5-5.5V5c0-1 .5-1.5 1.5-1.5 1.05 0 1.5.45 1.5 1.5v24h-2.4c-1 0-1.6.55-1.6 1.5 0 .2.05.35.05.5H8.5c.65-.5 1.25-1.2 1.55-2zm20.35 2h-7.8c-.55 0-.6-.25-.6-.5s.05-.5.6-.5h7.8c.55 0 .6.25.6.5s-.05.5-.6.5z"/></symbol><symbol id="icon-arrow-right2" viewBox="0 0 32 32"><path d="m19.414 27.414 10-10a2 2 0 0 0 0-2.828l-10-10a2 2 0 1 0-2.828 2.828L23.172 14H4a2 2 0 1 0 0 4h19.172l-6.586 6.586c-.39.39-.586.902-.586 1.414s.195 1.024.586 1.414a2 2 0 0 0 2.828 0z"/></symbol><symbol id="icon-car-xl" viewBox="0 0 32 32"><path d="M4.957 17.125a.822.822 0 0 0 .79.549l1.332-.018a.944.944 0 0 0 .872-.628 2.247 2.247 0 0 1 1.308-1.329l-.639 1.416a.277.277 0 0 0-.149-.044c-.19 0-.366.193-.274.41a.056.056 0 0 1-.016.063 2.833 2.833 0 0 0-.305.305c-.016.018-.041.026-.063.016-.298-.126-.551.252-.321.48.01.01.019.02.027.031a2.818 2.818 0 0 0-.195.47.51.51 0 0 1-.04.002c-.324-.002-.412.444-.112.566h.001a.055.055 0 0 1 .033.056 2.564 2.564 0 0 0 0 .432.055.055 0 0 1-.033.056h-.001a.283.283 0 0 0-.184.269c0 .15.109.298.296.297l.04.002c.051.164.117.321.195.47a.26.26 0 0 1-.027.031c-.231.227.022.606.321.48a.056.056 0 0 1 .063.016c.094.109.196.212.305.305.018.016.026.041.016.063a.31.31 0 0 0-.025.119c0 .239.309.4.505.201a.26.26 0 0 1 .031-.027c.149.078.306.144.47.195a.51.51 0 0 1 .002.04c-.002.324.444.412.566.112v-.001a.055.055 0 0 1 .056-.033 2.582 2.582 0 0 0 .432 0 .055.055 0 0 1 .056.033v.001c.122.3.568.212.566-.112l.002-.04c.164-.051.321-.117.47-.195a.26.26 0 0 1 .031.027c.062.063.135.09.206.09.19 0 .366-.193.274-.41a.056.056 0 0 1 .016-.063c.109-.094.211-.196.305-.305.016-.018.041-.026.063-.016.298.126.551-.252.321-.48a.26.26 0 0 1-.027-.031c.078-.149.144-.306.195-.47l.04-.002c.324.002.412-.444.112-.566h-.001a.055.055 0 0 1-.033-.056 2.582 2.582 0 0 0 0-.432.055.055 0 0 1 .033-.056h.001c.3-.122.211-.568-.112-.566l-.04-.002a2.818 2.818 0 0 0-.195-.47.26.26 0 0 1 .027-.031c.231-.227-.022-.606-.32-.48a.056.056 0 0 1-.063-.016 2.833 2.833 0 0 0-.305-.305c-.018-.016-.026-.041-.016-.063a.31.31 0 0 0 .025-.119c0-.217-.255-.37-.448-.247l-.654-1.45a2.245 2.245 0 0 1 1.381 1.308.935.935 0 0 0 .88.601l7.207-.099a.94.94 0 0 0 .85-.571 2.247 2.247 0 0 1 1.321-1.228l-.649 1.439a.277.277 0 0 0-.149-.044c-.19 0-.366.193-.274.41a.056.056 0 0 1-.016.063 2.833 2.833 0 0 0-.305.305c-.016.018-.041.026-.063.016-.298-.126-.551.252-.32.48.01.01.019.02.027.031a2.818 2.818 0 0 0-.195.47.51.51 0 0 1-.04.002c-.324-.002-.412.444-.112.566h.001a.055.055 0 0 1 .033.056 2.564 2.564 0 0 0 0 .432.055.055 0 0 1-.033.056h-.001a.283.283 0 0 0-.184.269c0 .15.109.298.296.297l.04.002c.051.164.117.321.195.47a.26.26 0 0 1-.027.031c-.231.227.022.606.32.48a.056.056 0 0 1 .063.016c.094.109.196.212.305.305.018.016.026.041.016.063a.31.31 0 0 0-.025.119c0 .239.309.4.505.201a.26.26 0 0 1 .031-.027c.149.078.306.144.47.195a.51.51 0 0 1 .002.04c-.002.324.444.412.566.112v-.001a.055.055 0 0 1 .056-.033 2.582 2.582 0 0 0 .432 0 .055.055 0 0 1 .056.033v.001c.122.3.568.212.566-.112l.002-.04c.164-.051.321-.117.47-.195a.26.26 0 0 1 .031.027c.062.063.135.09.206.09.19 0 .366-.193.274-.41-.01-.022-.002-.047.016-.063.109-.094.212-.196.305-.305a.054.054 0 0 1 .063-.016c.298.126.551-.252.321-.48a.26.26 0 0 1-.027-.031c.078-.149.144-.306.195-.47l.04-.002c.324.002.412-.444.113-.566h-.001a.055.055 0 0 1-.033-.056 2.582 2.582 0 0 0 0-.432.055.055 0 0 1 .033-.056h.001c.3-.122.211-.568-.113-.566l-.04-.002a2.818 2.818 0 0 0-.195-.47.26.26 0 0 1 .027-.031c.231-.227-.022-.606-.321-.48a.056.056 0 0 1-.063-.016 2.833 2.833 0 0 0-.305-.305c-.018-.016-.026-.041-.016-.063a.31.31 0 0 0 .025-.119c0-.217-.255-.37-.448-.247l-.644-1.428a2.251 2.251 0 0 1 1.264 1.156.946.946 0 0 0 .868.552l.722-.01a.386.386 0 0 0 .38-.386v-4.316a.386.386 0 0 0-.386-.386h-7.915l-.19-1.714a1.462 1.462 0 0 0-1.453-1.3h-3.143c-.469 0-.91.225-1.185.606l-1.187 1.643c-.195.27-.483.458-.808.528l-.787.17.078-.203a.416.416 0 0 0 .001-.295l-.034-.091a.415.415 0 0 0-.416-.268l-1.573.105a.239.239 0 0 0-.16.077l-.097.105a.239.239 0 0 0 .176.4h.015a.81.81 0 0 1 .686.379l.042.067-1.041.225a1.348 1.348 0 0 0-.986.867l-.444 1.254a.604.604 0 0 1-.561.409.59.59 0 0 0-.453.21l-.068.081a1.616 1.616 0 0 0-.29 1.573zm19.82 2.562a1.63 1.63 0 1 1-3.261 0 1.63 1.63 0 0 1 3.261 0zm-2.306-3.001.312-.692v.723a.297.297 0 0 0-.312-.031zm1.037.031v-.723l.312.692a.297.297 0 0 0-.312.031zm-4.663-.983c.359 0 .701-.155.937-.425l.965-1.101a1.807 1.807 0 0 1 1.359-.615h3.327a.28.28 0 0 1 0 .56h-3.327c-.359 0-.701.155-.937.425l-.965 1.101a1.807 1.807 0 0 1-1.359.615h-5.633a.28.28 0 1 1 0-.56h5.633zm-4.562-1.862a.28.28 0 0 1 .28-.28h1.12a.28.28 0 0 1 0 .56h-1.12a.28.28 0 0 1-.28-.28zm2.536-3.195a.28.28 0 1 1 .56 0v1.484a.28.28 0 1 1-.56 0v-1.484zm-4.487 1.35.01-.013 1.187-1.643a.64.64 0 0 1 .518-.264h2.057l-.077 2.075a.707.707 0 0 1-.707.681h-2.567a.523.523 0 0 1-.419-.835zm-1.953 3.967.312.692a.297.297 0 0 0-.312.031v-.723zm-.362 2.062a1.63 1.63 0 1 1 0 3.261 1.63 1.63 0 0 1 0-3.261zm-.363-2.062v.723a.297.297 0 0 0-.312-.031l.312-.692zm-2.579-1.092.354-.899a.207.207 0 0 1 .192-.131h.752c.143 0 .243.142.195.276l-.209.586a.209.209 0 0 1-.127.126l-.897.313a.206.206 0 0 1-.26-.271z"/><path d="M10.335 18.637a.317.317 0 1 1-.635 0 .317.317 0 0 1 .635 0zM10.21 19.223a.502.502 0 1 1-.385.928.502.502 0 0 1 .385-.928zM10.018 20.419a.317.317 0 1 0-.001.633.317.317 0 0 0 .001-.633zM11.05 20.004a.317.317 0 1 0 .001-.633.317.317 0 0 0-.001.633zM8.633 19.687a.317.317 0 1 0 .635 0 .317.317 0 0 0-.635 0zM23.371 18.413a.317.317 0 1 1-.449.449.317.317 0 0 1 .449-.449zM23.648 19.687a.502.502 0 1 1-1.005 0 .502.502 0 0 1 1.005 0zM23.147 20.419a.317.317 0 1 0 0 .634.317.317 0 0 0 0-.634zM24.179 20.004a.317.317 0 1 0 0-.634.317.317 0 0 0 0 .634zM22.08 19.369a.317.317 0 1 0 0 .634.317.317 0 0 0 0-.634z"/></symbol><symbol id="icon-car-l" viewBox="0 0 32 32"><path d="M16.984 8.042c-1.875 0-3.188 1.797-2.419 1.794h11.75c.096 0 .219-.089.177-.177l-.693-1.44c-.042-.089-.078-.177-.177-.177h-8.638zM6.206 19.953v.974h.974a1.335 1.335 0 0 0-.974-.974zm.974 1.612h-.974v.974c.479-.117.857-.495.974-.974zm-1.61.974v-.974h-.974c.117.479.495.857.974.974zm-.976-1.609h.974v-.974a1.34 1.34 0 0 0-.974.974zm18.857-.977v.974h.974a1.335 1.335 0 0 0-.974-.974zm.973 1.612h-.974v.974c.479-.117.857-.495.974-.974zm-1.609.974v-.974h-.974c.115.479.492.857.974.974zm-.976-1.609h.974v-.974a1.331 1.331 0 0 0-.974.974zm1.51-9.563c-.07 0-.135.06-.13.128l.318 3.997c.008.073.06.13.13.13h4.039c.07 0 .148-.063.13-.13-.271-1.016-.526-3.214-1.177-3.711-.526-.401-1.07-.354-2.393-.414h-.917zm-6.138.024h-2.995c-1.367 0-3.617 2.247-4.206 4.065-.029.089.076.169.169.169h6.557c.094 0 .156-.076.169-.169l.477-3.896c.008-.094-.081-.169-.172-.169zm1.297-.016c-.073 0-.122.057-.13.13l-.477 3.99c-.008.07.06.13.13.13h4.419c.07 0 .135-.06.13-.13l-.279-3.99c-.005-.07-.06-.13-.13-.13h-3.664zm-12.62 7.164c1.495 0 2.708 1.214 2.708 2.708s-1.214 2.708-2.708 2.708c-1.495 0-2.708-1.214-2.708-2.708s1.214-2.708 2.708-2.708zm-5.417.122c.138-.063.289-.091.453-.089-.008-.854.049-1.599.247-2.128.073-.305.206-.526.383-.688.557-.497 5.534-.935 6.583-1.07 1.289-1.26 2.724-2.414 4.253-3.505.424-.359 1.031-.536 1.797-.555l12.086-.01c.914-.005 1.617.385 2.065 1.263l1.008 2.904.229-.063v-1.13c-.042-.378.107-.565.396-.612h1.354c.372.016.635.203.677.742v4.016c.003.414-.148.685-.531.742h-1.258c-.125.029-.086.125-.096.258v1.37c-.091 1.01-.367 1.792-1.177 1.893h-2.451c.052-1.188-.172-2.159-.716-2.885-1.977-2.641-6.266-1.068-5.977 2.893H9.265c.089-1.266-.151-2.227-.674-2.917-1.971-2.602-6.557-1.198-6.016 2.997H.947c-.982 0-1.302-3.06-.477-3.427zm22.662-.122c1.495 0 2.708 1.214 2.708 2.708s-1.214 2.708-2.708 2.708a2.708 2.708 0 0 1 0-5.416z"/></symbol><symbol id="icon-car-m" viewBox="0 0 32 32"><path d="M8.287 19.664a2.114 2.114 0 1 1-4.228 0 2.114 2.114 0 0 1 4.228 0zM27.707 19.73a2.114 2.114 0 1 1-4.228 0 2.114 2.114 0 0 1 4.228 0z"/><path d="M31.868 16.955c-.066.132-.132.264-.33.264h-.727a.33.33 0 0 1 0-.66h.793a5.327 5.327 0 0 1-.194-.827l-.004-.032a.59.59 0 0 1-.493.265l-.037-.001h.002a.471.471 0 0 1-.529-.462v-.264a.51.51 0 0 1 .508-.463h.021-.001a.442.442 0 0 1 .461.261l.001.003a4.733 4.733 0 0 1 .07-.953l-.004.028-3.765-.528s-2.642-3.435-9.776-3.435c-3.963 0-7.398 1.651-9.974 3.104-.419.244-.94.509-1.474.748l-.111.044c-.622.267-1.371.516-2.143.705l-.103.021s-3.038.528-3.699 1.916c0 .036-.03.066-.066.066h.991a.33.33 0 0 1 0 .66H.294c-.066 0-.132-.066-.198-.066a2.77 2.77 0 0 0 .271 2.127l-.007-.013 2.246.264h.793l.198-.066a2.51 2.51 0 0 1 5.02 0l14.465-.198a2.523 2.523 0 0 1 5.019-.078l.001.012c1.057-.066 3.633-.33 3.765-1.519l.132-.793c0-.066-.066-.066-.132-.132zM16.94 13.917v.066H9.014s4.161-2.51 8.521-2.576zm7.398.066h-6.803l.594-2.51v-.066c3.765 0 5.086.594 6.407 1.453z"/></symbol><symbol id="icon-car-s" viewBox="0 0 32 32"><path d="M27.068 16.578a2.542 2.542 0 1 1 0 5.084 2.542 2.542 0 0 1 0-5.084zM5.99 17.906v.914h.914a1.248 1.248 0 0 0-.914-.914zm.916 1.511h-.917v.914a1.25 1.25 0 0 0 .917-.914zm-1.513.916v-.914h-.914c.109.448.466.802.914.914zm-.914-1.51h.914v-.914a1.245 1.245 0 0 0-.914.914zm22.888-.917v.914h.914a1.248 1.248 0 0 0-.914-.914zm.914 1.511h-.914v.914a1.24 1.24 0 0 0 .914-.914zm-1.51.916v-.914h-.914c.109.448.464.802.914.914zm-.917-1.51h.914v-.914a1.25 1.25 0 0 0-.914.914zm-13.018-5.156c.409.094.414.148.385.602-.01.159-.042.245-.096.404l6.049-.229.505-3.352c-3.674-.216-4.906.854-8.044 2.503.401-.018.799-.018 1.201.073zm7.768-2.516-.656 3.247 6.284-.255c.646-.026.758-.31.367-.854a7.185 7.185 0 0 0-.602-.734c-1.625-1.734-3.242-1.375-5.393-1.404zM.12 17.44h.193c.12-.531.357-1.01.706-1.44.766-.953 1.115-.833 2.253-1.039l6.37-1.201c1.414-1.005 3.12-1.901 5.201-2.656 1.93-.703 3.292-.771 5.357-.768a30.78 30.78 0 0 1 3.596.219c.617.039 1.221.122 1.815.242.711.143 1.409.341 2.094.576l2.552 1.474c.753.435.914.943 1.01 1.773l.359 3.068h.372v1.695c-.052.57-.276.656-.75.656h-.617c.24-5.362-7.305-6.279-7.141.424H9.052c.971-4.622-3.69-6.227-5.979-3.583-.695.805-.938 1.904-.875 3.203H.529a.808.808 0 0 1-.315-.255c-.273-.372-.214-1.495-.193-2.143.003-.174-.052-.245.099-.245zm5.573-.862a2.542 2.542 0 1 1 0 5.084 2.542 2.542 0 0 1 0-5.084z"/></symbol><symbol id="icon-plus" viewBox="0 0 32 32"><path d="M16 30C8.268 30 2 23.73 2 16S8.268 2 16 2s14 6.27 14 14-6.268 14-14 14zm0-30C7.163 0 0 7.16 0 16s7.163 16 16 16 16-7.16 16-16S24.837 0 16 0zm6 15h-5v-5a1.001 1.001 0 0 0-2 0v5h-5a1.001 1.001 0 0 0 0 2h5v5a1.001 1.001 0 0 0 2 0v-5h5a1.001 1.001 0 0 0 0-2z"/></symbol><symbol id="icon-arrow_down" viewBox="0 0 24 24"><path d="M7.406 8.578 12 13.172l4.594-4.594L18 9.984l-6 6-6-6z"/></symbol><symbol id="facebook" viewBox="0 0 32 32"><path d="M19 6h5V0h-5c-3.86 0-7 3.14-7 7v3H8v6h4v16h6V16h5l1-6h-6V7c0-.542.458-1 1-1z"/></symbol><symbol id="instagram" viewBox="0 0 32 32"><path d="M16 2.881c4.275 0 4.781.019 6.462.094 1.563.069 2.406.331 2.969.55a4.952 4.952 0 0 1 1.837 1.194 5.015 5.015 0 0 1 1.2 1.838c.219.563.481 1.412.55 2.969.075 1.688.094 2.194.094 6.463s-.019 4.781-.094 6.463c-.069 1.563-.331 2.406-.55 2.969a4.94 4.94 0 0 1-1.194 1.837 5.02 5.02 0 0 1-1.837 1.2c-.563.219-1.413.481-2.969.55-1.688.075-2.194.094-6.463.094s-4.781-.019-6.463-.094c-1.563-.069-2.406-.331-2.969-.55a4.952 4.952 0 0 1-1.838-1.194 5.02 5.02 0 0 1-1.2-1.837c-.219-.563-.481-1.413-.55-2.969-.075-1.688-.094-2.194-.094-6.463s.019-4.781.094-6.463c.069-1.563.331-2.406.55-2.969a4.964 4.964 0 0 1 1.194-1.838 5.015 5.015 0 0 1 1.838-1.2c.563-.219 1.412-.481 2.969-.55 1.681-.075 2.188-.094 6.463-.094zM16 0c-4.344 0-4.887.019-6.594.094-1.7.075-2.869.35-3.881.744-1.056.412-1.95.956-2.837 1.85a7.833 7.833 0 0 0-1.85 2.831C.444 6.538.169 7.7.094 9.4.019 11.113 0 11.656 0 16s.019 4.887.094 6.594c.075 1.7.35 2.869.744 3.881.413 1.056.956 1.95 1.85 2.837a7.82 7.82 0 0 0 2.831 1.844c1.019.394 2.181.669 3.881.744 1.706.075 2.25.094 6.594.094s4.888-.019 6.594-.094c1.7-.075 2.869-.35 3.881-.744 1.05-.406 1.944-.956 2.831-1.844s1.438-1.781 1.844-2.831c.394-1.019.669-2.181.744-3.881.075-1.706.094-2.25.094-6.594s-.019-4.887-.094-6.594c-.075-1.7-.35-2.869-.744-3.881a7.506 7.506 0 0 0-1.831-2.844A7.82 7.82 0 0 0 26.482.843C25.463.449 24.301.174 22.601.099c-1.712-.081-2.256-.1-6.6-.1z"/><path d="M16 7.781c-4.537 0-8.219 3.681-8.219 8.219s3.681 8.219 8.219 8.219 8.219-3.681 8.219-8.219A8.221 8.221 0 0 0 16 7.781zm0 13.55a5.331 5.331 0 1 1 0-10.663 5.331 5.331 0 0 1 0 10.663zM26.462 7.456a1.919 1.919 0 1 1-3.838 0 1.919 1.919 0 0 1 3.838 0z"/></symbol><symbol id="youtube" viewBox="0 0 32 32"><path d="M31.681 9.6s-.313-2.206-1.275-3.175C29.187 5.15 27.825 5.144 27.2 5.069c-4.475-.325-11.194-.325-11.194-.325h-.012s-6.719 0-11.194.325c-.625.075-1.987.081-3.206 1.356C.631 7.394.325 9.6.325 9.6s-.319 2.588-.319 5.181v2.425c0 2.587.319 5.181.319 5.181s.313 2.206 1.269 3.175c1.219 1.275 2.819 1.231 3.531 1.369 2.563.244 10.881.319 10.881.319s6.725-.012 11.2-.331c.625-.075 1.988-.081 3.206-1.356.962-.969 1.275-3.175 1.275-3.175s.319-2.587.319-5.181v-2.425c-.006-2.588-.325-5.181-.325-5.181zM12.694 20.15v-8.994l8.644 4.513-8.644 4.481z"/></symbol><symbol id="telegram" viewBox="0 0 32 32"><path d="M16 0C7.162 0 0 7.162 0 16s7.162 16 16 16 16-7.163 16-16S24.837 0 16 0zm7.863 10.969-2.625 12.369c-.181.881-.712 1.087-1.45.681l-4-2.956-1.919 1.869c-.225.219-.4.4-.8.4-.519 0-.431-.194-.606-.688L11.1 18.169l-3.956-1.231c-.856-.262-.862-.85.194-1.269l15.412-5.95c.7-.319 1.381.169 1.113 1.25z"/></symbol></defs></svg>