<svg aria-hidden="true" style="width:0;height:0;position:absolute;overflow:hidden" xmlns="http://www.w3.org/2000/svg"><defs><symbol id="icon-card-pay" viewBox="0 0 36 28"><path d="M0 23.5V14h36v9.5c0 1.375-1.125 2.5-2.5 2.5h-31A2.507 2.507 0 0 1 0 23.5zM10 20v2h6v-2h-6zm-6 0v2h4v-2H4zM33.5 2C34.875 2 36 3.125 36 4.5V8H0V4.5C0 3.125 1.125 2 2.5 2h31z"/></symbol><symbol id="icon-car-done" viewBox="0 0 32 32"><path d="M6.897 11.896v2.139a.31.31 0 0 0 .31.309h.863c.019-.075.049-.146.076-.217.013-.035.022-.072.037-.107.053-.121.115-.237.188-.347.017-.024.037-.045.054-.069.06-.083.124-.163.195-.237.033-.034.068-.063.102-.094a2.065 2.065 0 0 1 .545-.366c.046-.021.091-.043.137-.061.084-.033.172-.059.261-.082.043-.011.084-.025.127-.033.135-.025.272-.042.414-.042s.279.017.414.042c.044.008.084.023.127.033.089.023.177.049.261.082.047.018.092.04.137.061.076.036.149.076.221.12.043.027.085.053.126.083.07.05.135.105.198.163.034.031.069.061.102.094.071.074.135.153.195.237.017.024.037.045.054.069.073.109.135.225.188.347.015.034.024.071.037.107.027.072.057.142.076.217h4.554c.019-.075.049-.146.076-.217.013-.035.022-.072.037-.107.053-.121.115-.237.188-.347.017-.024.037-.045.054-.069.06-.083.124-.163.195-.237.033-.034.068-.063.102-.094a2.065 2.065 0 0 1 .545-.366c.046-.021.09-.043.137-.061.084-.033.172-.059.261-.082.043-.011.084-.025.127-.033.135-.025.272-.042.414-.042s.279.017.414.042c.044.008.084.023.127.033.089.023.177.049.261.082.047.018.092.04.137.061.076.036.149.076.221.12.043.027.085.053.126.083.07.05.135.105.198.163.034.031.07.061.102.094.071.074.135.153.195.237.017.024.038.045.054.069.073.109.135.225.188.347.015.034.024.071.037.107.027.072.057.142.076.217h.863a.31.31 0 0 0 .31-.309v-2.139a.31.31 0 0 0-.31-.31H7.203a.31.31 0 0 0-.31.31zm10.966-3.871a.72.72 0 0 0-.586-.301h-2.104v2.759h4.445l-1.755-2.457zm-3.794-.301h-2.104a.725.725 0 0 0-.587.301l-1.755 2.457h4.445V7.723z"/><path d="M10.207 13.793a1.104 1.104 0 0 0 0 2.206 1.104 1.104 0 0 0 0-2.206zm8.827 0a1.104 1.104 0 1 0 .002 2.208 1.104 1.104 0 0 0-.002-2.208zM18.483 0h-7.724v3.31h7.724zm7.724 3.31v13.549c.79.219 1.53.551 2.207.979V1.654c0-.913-.743-1.655-1.655-1.655h-7.172v2.207h5.517c.608 0 1.103.495 1.103 1.103z"/><path d="M17.395 29.793H4.138a1.104 1.104 0 0 1-1.103-1.103V3.311c0-.609.495-1.103 1.103-1.103h5.517V.001H2.483C1.57.001.828.744.828 1.656v28.689c0 .913.742 1.655 1.655 1.655h17.406a8.334 8.334 0 0 1-2.494-2.207z"/><path d="M4.138 3.31v25.379h12.548a8.23 8.23 0 0 1-.962-3.862c0-4.563 3.713-8.276 8.276-8.276.375 0 .741.034 1.103.083V3.31h-5.517c0 .609-.495 1.103-1.103 1.103h-7.724A1.104 1.104 0 0 1 9.656 3.31H4.139zm10.483 23.172H6.345a.552.552 0 1 1 0-1.104h8.276a.552.552 0 1 1 0 1.104zm0-2.758H6.345a.552.552 0 1 1 0-1.104h8.276a.552.552 0 1 1 0 1.104zm0-2.759H6.345a.552.552 0 1 1 0-1.104h8.276a.552.552 0 1 1 0 1.104zm-4.14-13.581a1.827 1.827 0 0 1 1.484-.764h5.311c.588 0 1.143.286 1.484.764l2.213 3.098h1.061c.78 0 1.413.634 1.413 1.414v2.139c0 .779-.634 1.413-1.413 1.413h-.872c-.247.95-1.103 1.655-2.129 1.655s-1.882-.706-2.129-1.655h-4.57c-.247.95-1.103 1.655-2.129 1.655s-1.882-.706-2.129-1.655h-.872a1.415 1.415 0 0 1-1.413-1.413v-2.139c0-.779.634-1.413 1.413-1.413h1.062l2.213-3.098z"/><path d="M24 17.655c-3.955 0-7.172 3.218-7.172 7.172s3.218 7.172 7.172 7.172c3.955 0 7.172-3.218 7.172-7.172S27.955 17.655 24 17.655zm3.763 4.729-3.428 4.926a.553.553 0 0 1-.803.111l-2.641-2.168a.551.551 0 1 1 .699-.852l2.179 1.788 3.087-4.436a.552.552 0 0 1 .906.631z"/></symbol><symbol id="icon-car-time" viewBox="0 0 32 32"><path d="M30.621 30.896h-.552v-1.302c0-1.95-1.018-3.723-2.663-4.767 1.645-1.043 2.663-2.817 2.663-4.766v-1.303h.552a.552.552 0 1 0 0-1.104h-9.379v2.406c0 1.95 1.018 3.723 2.663 4.766-1.645 1.044-2.663 2.817-2.663 4.767v2.405h9.379a.552.552 0 1 0 0-1.104zm-8.276-10.835v-1.303h6.621v1.303c0 1.831-1.122 3.475-2.867 4.215h-.886c-1.746-.74-2.867-2.383-2.867-4.215zm6.62 10.835h-6.621v-1.302c0-1.831 1.122-3.475 2.867-4.215h.886c1.746.74 2.867 2.384 2.867 4.215v1.302zm-8.644-17.785c.07.05.135.105.198.163.034.031.07.061.102.094.071.074.135.153.195.237.017.024.038.045.053.069.073.109.136.225.189.347.015.034.024.071.037.107.027.072.056.142.076.218h.863a.31.31 0 0 0 .31-.31v-2.139a.31.31 0 0 0-.31-.309H7.205a.31.31 0 0 0-.309.309v2.139c0 .171.139.31.309.31h.864c.019-.076.049-.146.076-.218.013-.035.022-.072.037-.107.053-.121.116-.237.189-.347.016-.024.036-.045.054-.069.06-.083.124-.163.195-.237.032-.034.067-.063.102-.094a2.184 2.184 0 0 1 .323-.246 2.24 2.24 0 0 1 .221-.12c.045-.021.09-.043.137-.061.084-.033.172-.059.261-.081.043-.011.084-.025.127-.034.134-.025.272-.041.414-.041s.279.016.413.041c.044.008.085.023.128.034.089.023.177.048.261.081.047.018.092.04.137.061a2.133 2.133 0 0 1 .545.366c.034.031.069.061.102.094.071.074.135.153.195.237.017.024.037.045.053.069.073.109.136.225.189.347.015.034.024.071.037.107.027.072.056.142.076.218h4.554c.019-.076.049-.146.076-.218.013-.035.022-.072.037-.107.053-.121.116-.237.189-.347.016-.024.036-.045.054-.069.06-.083.124-.163.195-.237.032-.034.067-.063.102-.094a2.065 2.065 0 0 1 .545-.366c.045-.021.09-.043.137-.061.084-.033.172-.059.262-.081.043-.011.084-.025.127-.034.134-.025.272-.041.414-.041s.279.016.413.041c.044.008.085.023.128.034.089.023.177.048.261.081.047.018.092.04.137.061a2.133 2.133 0 0 1 .347.203zm-3.045-5.387h-2.104v2.759h4.445l-1.755-2.457a.72.72 0 0 0-.586-.301zm-5.311 0a.724.724 0 0 0-.586.301l-1.755 2.457h4.445V7.723h-2.104z"/><path d="M10.207 13.793a1.104 1.104 0 0 0 0 2.206 1.104 1.104 0 0 0 0-2.206zm8.828 0a1.104 1.104 0 1 0 .002 2.208 1.104 1.104 0 0 0-.002-2.208zM18.483 0h-7.724v3.31h7.724zm7.724 3.31v13.241h2.207V1.654c0-.913-.743-1.655-1.655-1.655h-7.172v2.207h5.517c.609 0 1.103.495 1.103 1.103z"/><path d="M3.034 28.69V3.311c0-.609.495-1.103 1.103-1.103h5.517V.001H2.482C1.569.001.827.744.827 1.656v28.69c0 .913.743 1.655 1.655 1.655h17.655v-2.207h-16a1.104 1.104 0 0 1-1.103-1.104z"/><path d="M20.138 20.061v-3.26c-.324.19-.7.303-1.103.303a2.205 2.205 0 0 1-2.129-1.655h-4.57c-.247.949-1.103 1.655-2.129 1.655s-1.882-.706-2.129-1.655h-.872c-.78 0-1.413-.634-1.413-1.413v-2.139c0-.78.634-1.413 1.413-1.413h1.062l2.213-3.098a1.827 1.827 0 0 1 1.484-.764h5.311c.588 0 1.143.286 1.484.764l2.213 3.098h1.061c.78 0 1.413.634 1.413 1.413v2.139c0 .78-.634 1.413-1.413 1.413h-.872a2.217 2.217 0 0 1-.686 1.103h4.627V3.311h-5.517c0 .609-.495 1.103-1.103 1.103h-7.724a1.104 1.104 0 0 1-1.103-1.103H4.139V28.69h16.065a6.709 6.709 0 0 1 1.94-3.862 6.688 6.688 0 0 1-2.005-4.767zm-5.517 6.422H6.345a.552.552 0 1 1 0-1.104h8.276a.552.552 0 1 1 0 1.104zm0-2.759H6.345a.552.552 0 1 1 0-1.104h8.276a.552.552 0 1 1 0 1.104zm0-2.759H6.345a.552.552 0 1 1 0-1.104h8.276a.552.552 0 1 1 0 1.104z"/></symbol><symbol id="icon-car-check" viewBox="0 0 32 32"><path d="M7.207 14.345h.863c.019-.075.049-.146.076-.217.013-.035.022-.072.037-.107.053-.121.115-.237.188-.347.017-.024.037-.045.054-.069.06-.083.124-.163.195-.237.033-.034.068-.063.102-.094a2.065 2.065 0 0 1 .545-.366c.046-.021.091-.043.137-.061.084-.033.172-.059.261-.082.043-.011.084-.025.127-.033.135-.025.272-.042.414-.042s.279.017.414.042c.044.008.084.023.127.033.089.023.177.049.261.082.047.018.092.04.137.061.076.036.149.076.221.12.043.027.085.053.126.083.07.05.135.105.198.163.034.031.069.061.102.094.071.074.135.153.195.237.017.024.037.045.054.069.073.109.135.225.188.347.015.034.024.071.037.107.027.072.057.142.076.217h4.554c.019-.075.049-.146.076-.217.013-.035.022-.072.037-.107.053-.121.115-.237.188-.347.017-.024.037-.045.054-.069.06-.083.124-.163.195-.237.033-.034.068-.063.102-.094a2.065 2.065 0 0 1 .545-.366c.046-.021.09-.043.137-.061.084-.033.172-.059.261-.082.043-.011.084-.025.127-.033.135-.025.272-.042.414-.042s.279.017.414.042c.044.008.084.023.127.033.089.023.177.049.261.082.047.018.092.04.137.061.076.036.149.076.221.12.043.027.085.053.126.083.07.05.135.105.198.163.034.031.07.061.102.094.071.074.135.153.195.237.017.024.038.045.054.069.073.109.135.225.188.347.015.034.024.071.037.107.027.072.057.142.076.217h.863a.31.31 0 0 0 .31-.309v-2.139a.31.31 0 0 0-.31-.31H7.203a.31.31 0 0 0-.31.31v2.139a.31.31 0 0 0 .31.309zm10.656-6.32a.72.72 0 0 0-.586-.301h-2.104v2.759h4.445l-1.755-2.457zm-3.794-.301h-2.104a.725.725 0 0 0-.587.301l-1.755 2.457h4.445V7.723z"/><path d="M10.207 13.793a1.104 1.104 0 0 0 0 2.206 1.104 1.104 0 0 0 0-2.206zm8.828 0a1.104 1.104 0 1 0 .002 2.208 1.104 1.104 0 0 0-.002-2.208zM18.483 0h-7.724v3.31h7.724zm7.724 3.31v13.795a7.192 7.192 0 0 1 2.207 1.455V1.655C28.414.742 27.671 0 26.759 0h-7.172v2.207h5.517c.608 0 1.103.495 1.103 1.103z"/><path d="M23.448 30.897a7.12 7.12 0 0 1-3.805-1.103H4.137a1.104 1.104 0 0 1-1.103-1.103V3.312c0-.609.495-1.103 1.103-1.103h5.517V.002H2.482C1.569.002.827.745.827 1.657v28.69c0 .913.743 1.655 1.655 1.655h20.965s.175-1.103 0-1.103z"/><path d="M4.138 28.69h14.147a7.141 7.141 0 0 1-2.009-4.965c0-3.955 3.218-7.172 7.172-7.172.57 0 1.123.074 1.655.201V3.312h-5.517c0 .609-.495 1.103-1.103 1.103h-7.724a1.104 1.104 0 0 1-1.103-1.103H4.139v25.379zm1.655-16.794c0-.779.634-1.413 1.413-1.413h1.062l2.213-3.098a1.827 1.827 0 0 1 1.484-.764h5.311c.588 0 1.143.286 1.484.764l2.213 3.098h1.061c.78 0 1.413.634 1.413 1.413v2.139c0 .779-.634 1.413-1.413 1.413h-.872c-.247.95-1.103 1.655-2.129 1.655s-1.882-.706-2.129-1.655h-4.57c-.247.95-1.103 1.655-2.129 1.655s-1.882-.706-2.129-1.655h-.872a1.415 1.415 0 0 1-1.413-1.413v-2.139zm.552 7.966h8.276a.552.552 0 1 1 0 1.104H6.345a.552.552 0 1 1 0-1.104zm0 2.759h8.276a.552.552 0 1 1 0 1.104H6.345a.552.552 0 1 1 0-1.104zm0 2.758h8.276a.552.552 0 1 1 0 1.104H6.345a.552.552 0 1 1 0-1.104z"/><path d="m31.021 31.069-3.097-3.259a6.04 6.04 0 0 0 1.594-4.085c0-3.346-2.723-6.069-6.069-6.069s-6.069 2.723-6.069 6.069a6.076 6.076 0 0 0 6.069 6.069 6.026 6.026 0 0 0 3.66-1.24l3.112 3.274a.548.548 0 0 0 .78.02.55.55 0 0 0 .02-.779zm-7.573-2.379c-2.738 0-4.965-2.227-4.965-4.965s2.227-4.965 4.965-4.965 4.965 2.227 4.965 4.965-2.227 4.965-4.965 4.965z"/></symbol><symbol id="icon-arrow" viewBox="0 0 24 24"><path d="m5.859 4.125 2.156-2.109L17.999 12l-9.984 9.984-2.156-2.109L13.781 12z"/></symbol></defs></svg>