<svg aria-hidden="true" style="position:absolute;width:0;height:0;overflow:hidden" xmlns="http://www.w3.org/2000/svg">
  <defs>
    <symbol id="icon-card-pay" viewBox="0 0 36 28">
      <path d="M0 23.5V14h36v9.5c0 1.375-1.125 2.5-2.5 2.5h-31A2.507 2.507 0 0 1 0 23.5zM10 20v2h6v-2h-6zm-6 0v2h4v-2H4zM33.5 2C34.875 2 36 3.125 36 4.5V8H0V4.5C0 3.125 1.125 2 2.5 2h31z"/>
    </symbol>
    <symbol id="icon-car-done" viewBox="0 0 32 32">
      <path d="M6.897 11.896v2.139a.31.31 0 0 0 .31.309h.863c.019-.075.049-.146.076-.217.013-.035.022-.072.037-.107.053-.121.115-.237.188-.347.017-.024.037-.045.054-.069.06-.083.124-.163.195-.237.033-.034.068-.063.102-.094a2.065 2.065 0 0 1 .545-.366c.046-.021.091-.043.137-.061.084-.033.172-.059.261-.082.043-.011.084-.025.127-.033.135-.025.272-.042.414-.042s.279.017.414.042c.044.008.084.023.127.033.089.023.177.049.261.082.047.018.092.04.137.061.076.036.149.076.221.12.043.027.085.053.126.083.07.05.135.105.198.163.034.031.069.061.102.094.071.074.135.153.195.237.017.024.037.045.054.069.073.109.135.225.188.347.015.034.024.071.037.107.027.072.057.142.076.217h4.554c.019-.075.049-.146.076-.217.013-.035.022-.072.037-.107.053-.121.115-.237.188-.347.017-.024.037-.045.054-.069.06-.083.124-.163.195-.237.033-.034.068-.063.102-.094a2.065 2.065 0 0 1 .545-.366c.046-.021.09-.043.137-.061.084-.033.172-.059.261-.082.043-.011.084-.025.127-.033.135-.025.272-.042.414-.042s.279.017.414.042c.044.008.084.023.127.033.089.023.177.049.261.082.047.018.092.04.137.061.076.036.149.076.221.12.043.027.085.053.126.083.07.05.135.105.198.163.034.031.07.061.102.094.071.074.135.153.195.237.017.024.038.045.054.069.073.109.135.225.188.347.015.034.024.071.037.107.027.072.057.142.076.217h.863a.31.31 0 0 0 .31-.309v-2.139a.31.31 0 0 0-.31-.31H7.203a.31.31 0 0 0-.31.31zM17.863 8.025a.72.72 0 0 0-.586-.301h-2.104v2.759h4.445l-1.755-2.457zM14.069 7.724h-2.104a.725.725 0 0 0-.587.301l-1.755 2.457h4.445V7.723z"/>
      <path d="M10.207 13.793a1.104 1.104 0 0 0 0 2.206 1.104 1.104 0 0 0 0-2.206zM19.034 13.793a1.104 1.104 0 1 0 .002 2.208 1.104 1.104 0 0 0-.002-2.208zM18.483 0h-7.724v3.31h7.724zM26.207 3.31v13.549c.79.219 1.53.551 2.207.979V1.654c0-.913-.743-1.655-1.655-1.655h-7.172v2.207h5.517c.608 0 1.103.495 1.103 1.103z"/>
      <path d="M17.395 29.793H4.138a1.104 1.104 0 0 1-1.103-1.103V3.311c0-.609.495-1.103 1.103-1.103h5.517V.001H2.483C1.57.001.828.744.828 1.656v28.689c0 .913.742 1.655 1.655 1.655h17.406a8.334 8.334 0 0 1-2.494-2.207z"/>
      <path d="M4.138 3.31v25.379h12.548a8.23 8.23 0 0 1-.962-3.862c0-4.563 3.713-8.276 8.276-8.276.375 0 .741.034 1.103.083V3.31h-5.517c0 .609-.495 1.103-1.103 1.103h-7.724A1.104 1.104 0 0 1 9.656 3.31H4.139zm10.483 23.172H6.345a.552.552 0 1 1 0-1.104h8.276a.552.552 0 1 1 0 1.104zm0-2.758H6.345a.552.552 0 1 1 0-1.104h8.276a.552.552 0 1 1 0 1.104zm0-2.759H6.345a.552.552 0 1 1 0-1.104h8.276a.552.552 0 1 1 0 1.104zm-4.14-13.581a1.827 1.827 0 0 1 1.484-.764h5.311c.588 0 1.143.286 1.484.764l2.213 3.098h1.061c.78 0 1.413.634 1.413 1.414v2.139c0 .779-.634 1.413-1.413 1.413h-.872c-.247.95-1.103 1.655-2.129 1.655s-1.882-.706-2.129-1.655h-4.57c-.247.95-1.103 1.655-2.129 1.655s-1.882-.706-2.129-1.655h-.872a1.415 1.415 0 0 1-1.413-1.413v-2.139c0-.779.634-1.413 1.413-1.413h1.062l2.213-3.098z"/>
      <path d="M24 17.655c-3.955 0-7.172 3.218-7.172 7.172s3.218 7.172 7.172 7.172c3.955 0 7.172-3.218 7.172-7.172S27.955 17.655 24 17.655zm3.763 4.729-3.428 4.926a.553.553 0 0 1-.803.111l-2.641-2.168a.551.551 0 1 1 .699-.852l2.179 1.788 3.087-4.436a.552.552 0 0 1 .906.631z"/>
    </symbol>
    <symbol id="icon-car-time" viewBox="0 0 32 32">
      <path d="M30.621 30.896h-.552v-1.302c0-1.95-1.018-3.723-2.663-4.767 1.645-1.043 2.663-2.817 2.663-4.766v-1.303h.552a.552.552 0 1 0 0-1.104h-9.379v2.406c0 1.95 1.018 3.723 2.663 4.766-1.645 1.044-2.663 2.817-2.663 4.767v2.405h9.379a.552.552 0 1 0 0-1.104zm-8.276-10.835v-1.303h6.621v1.303c0 1.831-1.122 3.475-2.867 4.215h-.886c-1.746-.74-2.867-2.383-2.867-4.215zm6.62 10.835h-6.621v-1.302c0-1.831 1.122-3.475 2.867-4.215h.886c1.746.74 2.867 2.384 2.867 4.215v1.302zM20.321 13.111c.07.05.135.105.198.163.034.031.07.061.102.094.071.074.135.153.195.237.017.024.038.045.053.069.073.109.136.225.189.347.015.034.024.071.037.107.027.072.056.142.076.218h.863a.31.31 0 0 0 .31-.31v-2.139a.31.31 0 0 0-.31-.309H7.205a.31.31 0 0 0-.309.309v2.139c0 .171.139.31.309.31h.864c.019-.076.049-.146.076-.218.013-.035.022-.072.037-.107.053-.121.116-.237.189-.347.016-.024.036-.045.054-.069.06-.083.124-.163.195-.237.032-.034.067-.063.102-.094a2.184 2.184 0 0 1 .323-.246 2.24 2.24 0 0 1 .221-.12c.045-.021.09-.043.137-.061.084-.033.172-.059.261-.081.043-.011.084-.025.127-.034.134-.025.272-.041.414-.041s.279.016.413.041c.044.008.085.023.128.034.089.023.177.048.261.081.047.018.092.04.137.061a2.133 2.133 0 0 1 .545.366c.034.031.069.061.102.094.071.074.135.153.195.237.017.024.037.045.053.069.073.109.136.225.189.347.015.034.024.071.037.107.027.072.056.142.076.218h4.554c.019-.076.049-.146.076-.218.013-.035.022-.072.037-.107.053-.121.116-.237.189-.347.016-.024.036-.045.054-.069.06-.083.124-.163.195-.237.032-.034.067-.063.102-.094a2.065 2.065 0 0 1 .545-.366c.045-.021.09-.043.137-.061.084-.033.172-.059.262-.081.043-.011.084-.025.127-.034.134-.025.272-.041.414-.041s.279.016.413.041c.044.008.085.023.128.034.089.023.177.048.261.081.047.018.092.04.137.061a2.133 2.133 0 0 1 .347.203zM17.276 7.724h-2.104v2.759h4.445l-1.755-2.457a.72.72 0 0 0-.586-.301zM11.965 7.724a.724.724 0 0 0-.586.301l-1.755 2.457h4.445V7.723h-2.104z"/>
      <path d="M10.207 13.793a1.104 1.104 0 0 0 0 2.206 1.104 1.104 0 0 0 0-2.206zM19.035 13.793a1.104 1.104 0 1 0 .002 2.208 1.104 1.104 0 0 0-.002-2.208zM18.483 0h-7.724v3.31h7.724zM26.207 3.31v13.241h2.207V1.654c0-.913-.743-1.655-1.655-1.655h-7.172v2.207h5.517c.609 0 1.103.495 1.103 1.103z"/>
      <path d="M3.034 28.69V3.311c0-.609.495-1.103 1.103-1.103h5.517V.001H2.482C1.569.001.827.744.827 1.656v28.69c0 .913.743 1.655 1.655 1.655h17.655v-2.207h-16a1.104 1.104 0 0 1-1.103-1.104z"/>
      <path d="M20.138 20.061v-3.26c-.324.19-.7.303-1.103.303a2.205 2.205 0 0 1-2.129-1.655h-4.57c-.247.949-1.103 1.655-2.129 1.655s-1.882-.706-2.129-1.655h-.872c-.78 0-1.413-.634-1.413-1.413v-2.139c0-.78.634-1.413 1.413-1.413h1.062l2.213-3.098a1.827 1.827 0 0 1 1.484-.764h5.311c.588 0 1.143.286 1.484.764l2.213 3.098h1.061c.78 0 1.413.634 1.413 1.413v2.139c0 .78-.634 1.413-1.413 1.413h-.872a2.217 2.217 0 0 1-.686 1.103h4.627V3.311h-5.517c0 .609-.495 1.103-1.103 1.103h-7.724a1.104 1.104 0 0 1-1.103-1.103H4.139V28.69h16.065a6.709 6.709 0 0 1 1.94-3.862 6.688 6.688 0 0 1-2.005-4.767zm-5.517 6.422H6.345a.552.552 0 1 1 0-1.104h8.276a.552.552 0 1 1 0 1.104zm0-2.759H6.345a.552.552 0 1 1 0-1.104h8.276a.552.552 0 1 1 0 1.104zm0-2.759H6.345a.552.552 0 1 1 0-1.104h8.276a.552.552 0 1 1 0 1.104z"/>
    </symbol>
    <symbol id="icon-car-check" viewBox="0 0 32 32">
      <path d="M7.207 14.345h.863c.019-.075.049-.146.076-.217.013-.035.022-.072.037-.107.053-.121.115-.237.188-.347.017-.024.037-.045.054-.069.06-.083.124-.163.195-.237.033-.034.068-.063.102-.094a2.065 2.065 0 0 1 .545-.366c.046-.021.091-.043.137-.061.084-.033.172-.059.261-.082.043-.011.084-.025.127-.033.135-.025.272-.042.414-.042s.279.017.414.042c.044.008.084.023.127.033.089.023.177.049.261.082.047.018.092.04.137.061.076.036.149.076.221.12.043.027.085.053.126.083.07.05.135.105.198.163.034.031.069.061.102.094.071.074.135.153.195.237.017.024.037.045.054.069.073.109.135.225.188.347.015.034.024.071.037.107.027.072.057.142.076.217h4.554c.019-.075.049-.146.076-.217.013-.035.022-.072.037-.107.053-.121.115-.237.188-.347.017-.024.037-.045.054-.069.06-.083.124-.163.195-.237.033-.034.068-.063.102-.094a2.065 2.065 0 0 1 .545-.366c.046-.021.09-.043.137-.061.084-.033.172-.059.261-.082.043-.011.084-.025.127-.033.135-.025.272-.042.414-.042s.279.017.414.042c.044.008.084.023.127.033.089.023.177.049.261.082.047.018.092.04.137.061.076.036.149.076.221.12.043.027.085.053.126.083.07.05.135.105.198.163.034.031.07.061.102.094.071.074.135.153.195.237.017.024.038.045.054.069.073.109.135.225.188.347.015.034.024.071.037.107.027.072.057.142.076.217h.863a.31.31 0 0 0 .31-.309v-2.139a.31.31 0 0 0-.31-.31H7.203a.31.31 0 0 0-.31.31v2.139a.31.31 0 0 0 .31.309zM17.863 8.025a.72.72 0 0 0-.586-.301h-2.104v2.759h4.445l-1.755-2.457zM14.069 7.724h-2.104a.725.725 0 0 0-.587.301l-1.755 2.457h4.445V7.723z"/>
      <path d="M10.207 13.793a1.104 1.104 0 0 0 0 2.206 1.104 1.104 0 0 0 0-2.206zM19.035 13.793a1.104 1.104 0 1 0 .002 2.208 1.104 1.104 0 0 0-.002-2.208zM18.483 0h-7.724v3.31h7.724zM26.207 3.31v13.795a7.192 7.192 0 0 1 2.207 1.455V1.655C28.414.742 27.671 0 26.759 0h-7.172v2.207h5.517c.608 0 1.103.495 1.103 1.103z"/>
      <path d="M23.448 30.897a7.12 7.12 0 0 1-3.805-1.103H4.137a1.104 1.104 0 0 1-1.103-1.103V3.312c0-.609.495-1.103 1.103-1.103h5.517V.002H2.482C1.569.002.827.745.827 1.657v28.69c0 .913.743 1.655 1.655 1.655h20.965s.175-1.103 0-1.103z"/>
      <path d="M4.138 28.69h14.147a7.141 7.141 0 0 1-2.009-4.965c0-3.955 3.218-7.172 7.172-7.172.57 0 1.123.074 1.655.201V3.312h-5.517c0 .609-.495 1.103-1.103 1.103h-7.724a1.104 1.104 0 0 1-1.103-1.103H4.139v25.379zm1.655-16.794c0-.779.634-1.413 1.413-1.413h1.062l2.213-3.098a1.827 1.827 0 0 1 1.484-.764h5.311c.588 0 1.143.286 1.484.764l2.213 3.098h1.061c.78 0 1.413.634 1.413 1.413v2.139c0 .779-.634 1.413-1.413 1.413h-.872c-.247.95-1.103 1.655-2.129 1.655s-1.882-.706-2.129-1.655h-4.57c-.247.95-1.103 1.655-2.129 1.655s-1.882-.706-2.129-1.655h-.872a1.415 1.415 0 0 1-1.413-1.413v-2.139zm.552 7.966h8.276a.552.552 0 1 1 0 1.104H6.345a.552.552 0 1 1 0-1.104zm0 2.759h8.276a.552.552 0 1 1 0 1.104H6.345a.552.552 0 1 1 0-1.104zm0 2.758h8.276a.552.552 0 1 1 0 1.104H6.345a.552.552 0 1 1 0-1.104z"/>
      <path d="m31.021 31.069-3.097-3.259a6.04 6.04 0 0 0 1.594-4.085c0-3.346-2.723-6.069-6.069-6.069s-6.069 2.723-6.069 6.069a6.076 6.076 0 0 0 6.069 6.069 6.026 6.026 0 0 0 3.66-1.24l3.112 3.274a.548.548 0 0 0 .78.02.55.55 0 0 0 .02-.779zm-7.573-2.379c-2.738 0-4.965-2.227-4.965-4.965s2.227-4.965 4.965-4.965 4.965 2.227 4.965 4.965-2.227 4.965-4.965 4.965z"/>
    </symbol>
    <symbol id="icon-arrow" viewBox="0 0 24 24">
<path d="M5.859 4.125l2.156-2.109 9.984 9.984-9.984 9.984-2.156-2.109 7.922-7.875z"></path>
</symbol>
<symbol id="icon-car-paint" viewBox="0 0 32 32">
<path d="M29.058 27.813c-3.104 0-4.026-2.466-4.271-3.451l0.886-0.306c0.197-0.070 0.336-0.255 0.336-0.472 0-0.059-0.010-0.115-0.029-0.167l0.001 0.003-2.75-7.929h3.281c0.276 0 0.5-0.224 0.5-0.5v0-0.846h1.096v0.834c0 0.276 0.224 0.5 0.5 0.5s0.5-0.224 0.5-0.5v0-2.666c0-0.276-0.224-0.5-0.5-0.5s-0.5 0.224-0.5 0.5v0 0.834h-1.095v-2.169c0-0.276-0.224-0.5-0.5-0.5v0h-8.172v-1.485c1.29-0.521 2.184-1.762 2.188-3.212v-1.594h0.52c0.276 0 0.5-0.224 0.5-0.5s-0.224-0.5-0.5-0.5v0h-7.953c-0.276 0-0.5 0.224-0.5 0.5s0.224 0.5 0.5 0.5v0h0.521v1.593c0.003 1.45 0.897 2.691 2.164 3.204l0.023 0.008v1.485h-5.291c-0.276 0-0.5 0.224-0.5 0.5v0 0.227l-2.214 1.278h-0.819c-0.276 0-0.5 0.224-0.5 0.5s0.224 0.5 0.5 0.5v0h0.819l2.214 1.278v0.227c0 0.276 0.224 0.5 0.5 0.5v0h3.506v4.616l-1.156 1.156c-0.090 0.090-0.146 0.215-0.146 0.353 0 0.276 0.224 0.5 0.5 0.5 0.138 0 0.263-0.056 0.354-0.147v0l1.305-1.302c0.012-0.012 0.023-0.024 0.034-0.037l0.012-0.017 0.016-0.023c0.005-0.007 0.009-0.014 0.013-0.021l0.012-0.021 0.011-0.023c0.003-0.008 0.007-0.014 0.010-0.022s0.006-0.015 0.008-0.023c0.003-0.006 0.006-0.014 0.008-0.023l0-0.001c0-0.008 0.004-0.015 0.006-0.023s0.004-0.016 0.006-0.024 0.003-0.018 0.004-0.027 0-0.014 0-0.021c0-0.007 0.001-0.016 0.001-0.025s-0-0.017-0.001-0.026l0 0.001v-4.823h2.864c0.901 0 1.668 0.576 1.954 1.379l0.005 0.015 2.681 7.734c0.070 0.197 0.255 0.336 0.472 0.336 0.059 0 0.115-0.010 0.167-0.029l-0.003 0.001 0.688-0.238c0.181 0.665 0.44 1.247 0.774 1.777l-0.016-0.027c0.682 1.082 2.009 2.375 4.458 2.375 0.276 0 0.5-0.224 0.5-0.5s-0.224-0.5-0.5-0.5v0zM16.804 9.226h0.018c0.028 0 0.056 0.004 0.084 0.005 0.014 0 0.027 0 0.041 0 0.041 0 0.083 0 0.125 0s0.084 0 0.125 0h0.038c0.029 0 0.058 0 0.087-0.005h0.017v1.25h-0.537zM14.617 5.781v-1.593h4.912v1.593c0 0 0 0.001 0 0.001 0 1.355-1.099 2.454-2.454 2.454-0.128 0-0.254-0.010-0.377-0.029l0.014 0.002c-0.108-0.016-0.201-0.035-0.292-0.061l0.016 0.004c-1.054-0.292-1.815-1.242-1.818-2.37v-0zM8.933 12.984l1.080-0.625v1.25zM22.392 21.191l-0.892-2.577c0.089 0.040 0.167 0.087 0.237 0.142l-0.002-0.002c0.282 0.216 0.527 0.578 0.67 0.991 0.199 0.579 0.158 1.126-0.012 1.446zM22.758 22.246c0.736-0.487 1-1.648 0.59-2.828-0.209-0.602-0.566-1.119-1.006-1.457-0.382-0.293-0.806-0.429-1.207-0.398l-0.349-1.007c-0.43-1.213-1.567-2.066-2.903-2.067l-6.869-0.006s0-0.006 0-0.010v-2.979c0-0.003 0-0.006 0-0.010v-0.006h15v3.011h-3.482c-0 0-0 0-0 0-0.276 0-0.5 0.224-0.5 0.5 0 0.059 0.010 0.115 0.029 0.167l-0.001-0.004 2.813 8.121-0.821 0.284h-0.004l-0.746 0.258zM4.688 13.484h-1.746c-0.276 0-0.5-0.224-0.5-0.5s0.224-0.5 0.5-0.5v0h1.746c0.276 0 0.5 0.224 0.5 0.5s-0.224 0.5-0.5 0.5v0zM5.556 11.609c-0.088 0.151-0.249 0.25-0.433 0.25-0.092 0-0.178-0.025-0.252-0.068l0.002 0.001-1.51-0.875c-0.157-0.086-0.261-0.251-0.261-0.439 0-0.276 0.224-0.5 0.5-0.5 0.097 0 0.187 0.027 0.264 0.075l1.508 0.874c0.15 0.088 0.249 0.249 0.249 0.432 0 0.093-0.025 0.179-0.069 0.254l0.001-0.002zM5.556 14.359c0.042 0.072 0.067 0.158 0.067 0.25 0 0.184-0.099 0.345-0.247 0.432l-0.002 0.001-1.51 0.875c-0.072 0.042-0.158 0.067-0.25 0.067-0.276 0-0.5-0.224-0.5-0.5 0-0.184 0.1-0.345 0.248-0.432l0.002-0.001 1.51-0.875c0.071-0.042 0.157-0.066 0.249-0.066 0.184 0 0.344 0.099 0.431 0.247l0.001 0.002z"></path>
</symbol>
<symbol id="icon-car-polishing" viewBox="0 0 32 32">
<path stroke-linejoin="round" stroke-linecap="round" stroke-miterlimit="10" stroke-width="2" d="M31 22.6c-0.9 0.2-1.8 0-2.1-0.6-0.4-0.6-0.1-1.4 0.5-2.1-0.7-0.7-1.7-1.3-2.7-1.6-0.3 0.9-0.9 1.5-1.6 1.5s-1.3-0.6-1.6-1.5c-1 0.3-2 0.8-2.7 1.6 0.6 0.7 0.9 1.5 0.5 2.1s-1.2 0.8-2.1 0.6c-0.1 0.5-0.2 1-0.2 1.6s0.1 1.1 0.2 1.6c0.9-0.2 1.8 0 2.1 0.6 0.4 0.6 0.1 1.4-0.5 2.1 0.7 0.7 1.7 1.3 2.7 1.6 0.3-0.9 0.9-1.5 1.6-1.5s1.3 0.6 1.6 1.5c1-0.3 2-0.8 2.7-1.6-0.6-0.7-0.9-1.5-0.5-2.1s1.2-0.8 2.1-0.6c0.1-0.5 0.2-1 0.2-1.6s-0.1-1.1-0.2-1.6z"></path>
<path stroke-linejoin="round" stroke-linecap="round" stroke-miterlimit="10" stroke-width="2" d="M25 24v0"></path>
<path stroke-linejoin="round" stroke-linecap="round" stroke-miterlimit="10" stroke-width="2" d="M24 13h-20l2-4.6c0.6-1.4 2-2.4 3.6-2.4h8.7c1.6 0 3 1 3.7 2.4l2 4.6z"></path>
<path stroke-linejoin="round" stroke-linecap="round" stroke-miterlimit="10" stroke-width="2" d="M8 23h-6v2c0 1.1 0.9 2 2 2h2c1.1 0 2-0.9 2-2v-2z"></path>
<path stroke-linejoin="round" stroke-linecap="round" stroke-miterlimit="10" stroke-width="2" d="M1 12h3.4"></path>
<path stroke-linejoin="round" stroke-linecap="round" stroke-miterlimit="10" stroke-width="2" d="M24 12h3"></path>
<path stroke-linejoin="round" stroke-linecap="round" stroke-miterlimit="10" stroke-width="2" d="M19 23h-10l1.4-2.9c0.3-0.7 1-1.1 1.8-1.1h3.5c0.8 0 1.5 0.4 1.8 1.1l1.5 2.9z"></path>
<path stroke-linejoin="round" stroke-linecap="round" stroke-miterlimit="10" stroke-width="2" d="M4 18h3"></path>
<path stroke-linejoin="round" stroke-linecap="round" stroke-miterlimit="10" stroke-width="2" d="M19.3 23h-16.3c-1.1 0-2-0.9-2-2v-4c0-2.2 1.8-4 4-4h18c2.2 0 4 1.8 4 4v1.3"></path>
</symbol>
<symbol id="icon-vacuum-cleaner" viewBox="0 0 32 32">
<path d="M14.75 25.45c0.9 0 1.7-0.75 1.7-1.7s-0.75-1.7-1.7-1.7-1.7 0.75-1.7 1.7 0.8 1.7 1.7 1.7zM14.75 22.95c0.45 0 0.8 0.35 0.8 0.8s-0.35 0.8-0.8 0.8-0.8-0.35-0.8-0.8 0.35-0.8 0.8-0.8z"></path>
<path d="M30.4 29h-1.9v-24c0-2.9-2.1-5-5-5s-5 2.1-5 5v7c0 0.95-0.55 1.5-1.5 1.5-1 0-1.5-0.5-1.5-1.55v-0.95c0-3-2.050-4.95-5-4.95-3.45 0-5 2.45-5 4.95v6.25c-3 0.8-5.5 3.25-5.5 6.75 0 0.75 0.15 1.6 0.5 2.65 0 0.1 0 0.25 0 0.35 0 2.75 2.2 5 4.95 5 0.050 0 0.050 0 0.050 0v0h17c0.050 0 0.050 0 0.1 0h7.8c1 0 1.6-0.55 1.6-1.5s-0.6-1.5-1.6-1.5zM6.5 11c0-1.95 1.050-4 4-4 2.4 0 4 1.6 4 3.95v1c0 1.6 0.95 2.55 2.5 2.55 1.5 0 2.5-1 2.5-2.5v-7c0-2.35 1.65-4 4-4s4 1.65 4 4v3h-1.5v-3c0-1.6-0.9-2.5-2.5-2.5-1.55 0-2.5 0.95-2.5 2.5v6.5c0 2.15-1.25 4.5-4 4.5-2.35 0-4-1.65-4-4v-1c0-1.6-0.9-2.5-2.5-2.5-1.15 0-2.5 0.45-2.5 2.5v6c0 0-0.35 0-0.5 0-0.35 0-0.5 0.050-1 0.1v-6.1zM27.5 9v20h-1.5v-20h1.5zM1 24c0-3.7 3.35-6 6.5-6 9.5 0 13.25 6.6 13.9 10h-11c0.050-0.3 0.1-0.65 0.1-1 0-2.75-2.25-5-5-5-1.95 0-3.6 1.1-4.45 2.7-0.050-0.25-0.050-0.5-0.050-0.7zM5.5 31c-2.2 0-4-1.8-4-4s1.8-4 4-4 4 1.8 4 4-1.8 4-4 4zM10.050 29h12.45c0-3.85-4-11.2-13.5-11.95v-6.050c0-1.1 0.4-1.5 1.5-1.5 1.050 0 1.5 0.45 1.5 1.5v1c0 2.9 2.1 5 5 5 3.3 0 5-2.75 5-5.5v-6.5c0-1 0.5-1.5 1.5-1.5 1.050 0 1.5 0.45 1.5 1.5v24h-2.4c-1 0-1.6 0.55-1.6 1.5 0 0.2 0.050 0.35 0.050 0.5h-12.55c0.65-0.5 1.25-1.2 1.55-2zM30.4 31h-7.8c-0.55 0-0.6-0.25-0.6-0.5s0.050-0.5 0.6-0.5h7.8c0.55 0 0.6 0.25 0.6 0.5s-0.050 0.5-0.6 0.5z"></path>
</symbol>
<symbol id="icon-arrow-right2" viewBox="0 0 32 32">
<path d="M19.414 27.414l10-10c0.781-0.781 0.781-2.047 0-2.828l-10-10c-0.781-0.781-2.047-0.781-2.828 0s-0.781 2.047 0 2.828l6.586 6.586h-19.172c-1.105 0-2 0.895-2 2s0.895 2 2 2h19.172l-6.586 6.586c-0.39 0.39-0.586 0.902-0.586 1.414s0.195 1.024 0.586 1.414c0.781 0.781 2.047 0.781 2.828 0z"></path>
</symbol>
<symbol id="icon-car-xl" viewBox="0 0 32 32">
<path d="M4.957 17.125c0.116 0.334 0.436 0.554 0.79 0.549l1.332-0.018c0.394-0.006 0.738-0.258 0.872-0.628 0.222-0.611 0.702-1.098 1.308-1.329l-0.639 1.416c-0-0-0-0-0-0-0.047-0.030-0.099-0.044-0.149-0.044-0.19 0-0.366 0.193-0.274 0.41 0 0 0 0 0 0 0.009 0.022 0.002 0.047-0.016 0.063-0.109 0.094-0.212 0.196-0.305 0.305-0.016 0.018-0.041 0.026-0.063 0.016-0-0-0-0-0-0-0.298-0.126-0.551 0.252-0.321 0.48 0.010 0.010 0.019 0.020 0.027 0.031-0.078 0.149-0.144 0.306-0.195 0.47-0.013 0.001-0.026 0.002-0.040 0.002-0.324-0.002-0.412 0.444-0.112 0.566 0 0 0 0 0.001 0 0.022 0.009 0.035 0.032 0.033 0.056-0.006 0.071-0.009 0.143-0.009 0.216s0.003 0.144 0.009 0.216c0.002 0.024-0.011 0.047-0.033 0.056-0 0-0.001 0-0.001 0-0.127 0.051-0.184 0.16-0.184 0.269 0 0.15 0.109 0.298 0.296 0.297 0.014 0 0.027 0.001 0.040 0.002 0.051 0.164 0.117 0.321 0.195 0.47-0.008 0.011-0.017 0.021-0.027 0.031-0.231 0.227 0.022 0.606 0.321 0.48 0 0 0 0 0-0 0.022-0.009 0.047-0.002 0.063 0.016 0.094 0.109 0.196 0.212 0.305 0.305 0.018 0.016 0.026 0.041 0.016 0.063-0 0-0 0-0 0-0.017 0.041-0.025 0.081-0.025 0.119 0 0.239 0.309 0.4 0.505 0.201 0.010-0.010 0.020-0.019 0.031-0.027 0.149 0.078 0.306 0.144 0.47 0.195 0.001 0.013 0.002 0.026 0.002 0.040-0.002 0.324 0.444 0.412 0.566 0.112 0 0 0-0 0-0.001 0.009-0.022 0.032-0.035 0.056-0.033 0.072 0.006 0.143 0.009 0.216 0.009s0.144-0.003 0.216-0.009c0.024-0.002 0.047 0.011 0.056 0.033 0 0 0 0.001 0 0.001 0.122 0.3 0.568 0.212 0.566-0.112 0-0.014 0.001-0.027 0.002-0.040 0.164-0.051 0.321-0.117 0.47-0.195 0.011 0.008 0.021 0.017 0.031 0.027 0.062 0.063 0.135 0.090 0.206 0.090 0.19 0 0.366-0.193 0.274-0.41 0 0 0 0-0-0-0.009-0.022-0.002-0.047 0.016-0.063 0.109-0.094 0.211-0.196 0.305-0.305 0.016-0.018 0.041-0.026 0.063-0.016 0 0 0 0 0 0 0.298 0.126 0.551-0.252 0.321-0.48-0.010-0.010-0.019-0.020-0.027-0.031 0.078-0.149 0.144-0.306 0.195-0.47 0.013-0.001 0.026-0.002 0.040-0.002 0.324 0.002 0.412-0.444 0.112-0.566 0 0-0-0-0.001-0-0.022-0.009-0.035-0.032-0.033-0.056 0.006-0.072 0.009-0.143 0.009-0.216s-0.003-0.145-0.009-0.216c-0.002-0.024 0.011-0.047 0.033-0.056 0-0 0.001-0 0.001-0 0.3-0.122 0.211-0.568-0.112-0.566-0.014 0-0.027-0.001-0.040-0.002-0.051-0.164-0.117-0.321-0.195-0.47 0.008-0.011 0.017-0.021 0.027-0.031 0.231-0.227-0.022-0.606-0.32-0.48 0 0 0 0-0 0-0.022 0.009-0.047 0.002-0.063-0.016-0.094-0.109-0.196-0.212-0.305-0.305-0.018-0.016-0.026-0.041-0.016-0.063 0-0 0-0 0-0 0.017-0.041 0.025-0.081 0.025-0.119 0-0.217-0.255-0.37-0.448-0.247-0 0-0 0-0 0l-0.654-1.45c0.632 0.209 1.139 0.692 1.381 1.308 0.143 0.364 0.489 0.606 0.88 0.601l7.207-0.099c0.372-0.005 0.703-0.23 0.85-0.571 0.248-0.573 0.727-1.021 1.321-1.228l-0.649 1.439c-0-0-0-0-0-0-0.047-0.030-0.099-0.044-0.149-0.044-0.19 0-0.366 0.193-0.274 0.41 0 0 0 0 0 0 0.009 0.022 0.002 0.047-0.016 0.063-0.109 0.094-0.212 0.196-0.305 0.305-0.016 0.018-0.041 0.026-0.063 0.016-0-0-0-0-0-0-0.298-0.126-0.551 0.252-0.32 0.48 0.010 0.010 0.019 0.020 0.027 0.031-0.078 0.149-0.144 0.306-0.195 0.47-0.013 0.001-0.026 0.002-0.040 0.002-0.324-0.002-0.412 0.444-0.112 0.566 0 0 0 0 0.001 0 0.022 0.009 0.035 0.032 0.033 0.056-0.006 0.071-0.009 0.143-0.009 0.216s0.003 0.144 0.009 0.216c0.002 0.024-0.011 0.047-0.033 0.056-0 0-0.001 0-0.001 0-0.127 0.051-0.184 0.16-0.184 0.269 0 0.15 0.109 0.298 0.296 0.297 0.014 0 0.027 0.001 0.040 0.002 0.051 0.164 0.117 0.321 0.195 0.47-0.008 0.011-0.017 0.021-0.027 0.031-0.231 0.227 0.022 0.606 0.32 0.48 0 0 0 0 0-0 0.022-0.009 0.047-0.002 0.063 0.016 0.094 0.109 0.196 0.212 0.305 0.305 0.018 0.016 0.026 0.041 0.016 0.063-0 0-0 0-0 0-0.017 0.041-0.025 0.081-0.025 0.119 0 0.239 0.309 0.4 0.505 0.201 0.010-0.010 0.020-0.019 0.031-0.027 0.149 0.078 0.306 0.144 0.47 0.195 0.001 0.013 0.002 0.026 0.002 0.040-0.002 0.324 0.444 0.412 0.566 0.112 0 0 0-0 0-0.001 0.009-0.022 0.032-0.035 0.056-0.033 0.072 0.006 0.143 0.009 0.216 0.009s0.145-0.003 0.216-0.009c0.024-0.002 0.047 0.011 0.056 0.033 0 0 0 0.001 0 0.001 0.122 0.3 0.568 0.212 0.566-0.112 0-0.014 0.001-0.027 0.002-0.040 0.164-0.051 0.321-0.117 0.47-0.195 0.011 0.008 0.021 0.017 0.031 0.027 0.062 0.063 0.135 0.090 0.206 0.090 0.19 0 0.366-0.193 0.274-0.41 0 0 0 0 0-0-0.010-0.022-0.002-0.047 0.016-0.063 0.109-0.094 0.212-0.196 0.305-0.305 0.015-0.018 0.041-0.026 0.063-0.016 0 0 0 0 0 0 0.298 0.126 0.551-0.252 0.321-0.48-0.010-0.010-0.019-0.020-0.027-0.031 0.078-0.149 0.144-0.306 0.195-0.47 0.013-0.001 0.026-0.002 0.040-0.002 0.324 0.002 0.412-0.444 0.113-0.566-0 0-0.001-0-0.001-0-0.022-0.009-0.035-0.032-0.033-0.056 0.006-0.072 0.009-0.143 0.009-0.216s-0.003-0.145-0.009-0.216c-0.002-0.024 0.011-0.047 0.033-0.056 0-0 0.001-0 0.001-0 0.3-0.122 0.211-0.568-0.113-0.566-0.014 0-0.027-0.001-0.040-0.002-0.051-0.164-0.117-0.321-0.195-0.47 0.008-0.011 0.017-0.021 0.027-0.031 0.231-0.227-0.022-0.606-0.321-0.48 0 0 0 0-0 0-0.022 0.009-0.047 0.002-0.063-0.016-0.094-0.109-0.196-0.212-0.305-0.305-0.018-0.016-0.026-0.041-0.016-0.063 0-0 0-0 0-0 0.017-0.041 0.025-0.081 0.025-0.119 0-0.217-0.255-0.37-0.448-0.247-0 0-0 0-0 0l-0.644-1.428c0.558 0.203 1.013 0.622 1.264 1.156 0.158 0.338 0.494 0.557 0.868 0.552l0.722-0.010c0.211-0.003 0.38-0.175 0.38-0.386v-4.316c0-0.213-0.173-0.386-0.386-0.386h-7.915l-0.19-1.714c-0.037-0.33-0.184-0.637-0.419-0.872-0.274-0.274-0.646-0.428-1.034-0.428h-3.143c-0.469 0-0.91 0.225-1.185 0.606l-1.187 1.643c-0.195 0.27-0.483 0.458-0.808 0.528l-0.787 0.17 0.078-0.203c0.036-0.095 0.037-0.2 0.001-0.295l-0.034-0.091c-0.064-0.171-0.233-0.28-0.416-0.268l-1.573 0.105c-0.061 0.004-0.119 0.032-0.16 0.077l-0.097 0.105c-0.103 0.113-0.076 0.292 0.056 0.368 0.036 0.021 0.078 0.032 0.12 0.032h0.015c0.279 0 0.538 0.143 0.686 0.379l0.042 0.067-0 0-1.041 0.225c-0.457 0.098-0.829 0.427-0.986 0.867l-0.444 1.254c-0.085 0.239-0.307 0.409-0.561 0.409-0.175-0-0.34 0.076-0.453 0.21l-0.068 0.081c-0.367 0.436-0.478 1.033-0.29 1.573zM24.777 19.687c0 0.901-0.73 1.631-1.631 1.631s-1.631-0.73-1.631-1.631c0-0.901 0.73-1.631 1.631-1.631s1.631 0.73 1.631 1.631zM22.471 16.686l0.312-0.692v0.723c0 0 0 0 0-0-0.090-0.072-0.213-0.078-0.312-0.031-0 0-0 0-0 0zM23.508 16.717v-0.723l0.312 0.692c-0-0-0-0-0-0-0.099-0.047-0.222-0.041-0.312 0.031zM18.845 15.734c0.359 0 0.701-0.155 0.937-0.425l0.965-1.101c0.343-0.391 0.838-0.615 1.359-0.615h3.327c0.154 0 0.28 0.126 0.28 0.28s-0.125 0.28-0.28 0.28h-3.327c-0.359 0-0.701 0.155-0.937 0.425l-0.965 1.101c-0.343 0.391-0.838 0.615-1.359 0.615h-5.633c-0.155 0-0.28-0.125-0.28-0.28s0.126-0.28 0.28-0.28h5.633zM14.283 13.872c0-0.155 0.126-0.28 0.28-0.28h1.12c0.155 0 0.28 0.126 0.28 0.28s-0.126 0.28-0.28 0.28h-1.12c-0.154 0-0.28-0.126-0.28-0.28zM16.819 10.677c0-0.155 0.125-0.28 0.28-0.28s0.28 0.126 0.28 0.28v1.484c0 0.155-0.125 0.28-0.28 0.28s-0.28-0.126-0.28-0.28v-1.484zM12.332 12.027c0.003-0.004 0.006-0.009 0.010-0.013l1.187-1.643c0.12-0.166 0.313-0.264 0.518-0.264h2.057l-0.077 2.075c-0.014 0.38-0.326 0.681-0.707 0.681h-2.567c-0.43 0-0.673-0.488-0.419-0.835zM10.379 15.994l0.312 0.692c-0-0-0-0-0-0-0.099-0.047-0.222-0.041-0.312 0.031v-0.723zM10.017 18.056c0.901 0 1.631 0.73 1.631 1.631s-0.73 1.631-1.631 1.631c-0.901 0-1.631-0.73-1.631-1.631s0.73-1.631 1.631-1.631zM9.654 15.994v0.723c-0.090-0.072-0.213-0.078-0.312-0.031-0 0-0 0-0 0l0.312-0.692zM7.075 14.902l0.354-0.899c0.031-0.079 0.108-0.131 0.192-0.131h0.752c0.143 0 0.243 0.142 0.195 0.276l-0.209 0.586c-0.021 0.059-0.068 0.105-0.127 0.126l-0.897 0.313c-0.167 0.058-0.325-0.106-0.26-0.271z"></path>
<path d="M10.335 18.637c0 0.175-0.142 0.317-0.318 0.317s-0.318-0.142-0.318-0.317c0-0.175 0.142-0.317 0.318-0.317s0.318 0.142 0.318 0.317z"></path>
<path d="M10.21 19.223c0.256 0.106 0.378 0.4 0.272 0.656s-0.4 0.378-0.656 0.272c-0.256-0.106-0.378-0.4-0.272-0.656s0.4-0.378 0.656-0.272z"></path>
<path d="M10.018 20.419c-0.175 0-0.318 0.142-0.318 0.317s0.142 0.317 0.318 0.317c0.175 0 0.318-0.142 0.318-0.317s-0.142-0.317-0.318-0.317z"></path>
<path d="M11.050 20.004c0.175 0 0.318-0.142 0.318-0.317s-0.142-0.317-0.318-0.317c-0.175 0-0.318 0.142-0.318 0.317s0.142 0.317 0.318 0.317z"></path>
<path d="M8.633 19.687c0 0.175 0.142 0.317 0.318 0.317s0.318-0.142 0.318-0.317c0-0.175-0.142-0.317-0.318-0.317s-0.318 0.142-0.318 0.317z"></path>
<path d="M23.371 18.413c0.124 0.124 0.124 0.325 0 0.449s-0.325 0.124-0.449 0c-0.124-0.124-0.124-0.325 0-0.449s0.325-0.124 0.449 0z"></path>
<path d="M23.648 19.687c0 0.277-0.225 0.502-0.502 0.502s-0.502-0.225-0.502-0.502c0-0.277 0.225-0.502 0.502-0.502s0.502 0.225 0.502 0.502z"></path>
<path d="M23.147 20.419c-0.175 0-0.317 0.142-0.317 0.317s0.142 0.317 0.317 0.317c0.175 0 0.317-0.142 0.317-0.317s-0.142-0.317-0.317-0.317z"></path>
<path d="M24.179 20.004c0.175 0 0.317-0.142 0.317-0.317s-0.142-0.317-0.317-0.317c-0.175 0-0.317 0.142-0.317 0.317s0.142 0.317 0.317 0.317z"></path>
<path d="M22.080 19.369c-0.175 0-0.317 0.142-0.317 0.317s0.142 0.317 0.317 0.317c0.175 0 0.317-0.142 0.317-0.317s-0.142-0.317-0.317-0.317z"></path>
</symbol>
<symbol id="icon-car-l" viewBox="0 0 32 32">
<path d="M16.984 8.042v0c-1.875 0-3.188 1.797-2.419 1.794h11.75c0.096 0 0.219-0.089 0.177-0.177l-0.693-1.44c-0.042-0.089-0.078-0.177-0.177-0.177h-8.638zM6.206 19.953v0.974h0.974c-0.117-0.477-0.495-0.857-0.974-0.974v0zM7.18 21.565h-0.974v0.974c0.479-0.117 0.857-0.495 0.974-0.974v0zM5.57 22.539v-0.974h-0.974c0.117 0.479 0.495 0.857 0.974 0.974v0zM4.594 20.93h0.974v-0.974c-0.477 0.117-0.854 0.495-0.974 0.974v0zM23.451 19.953v0.974h0.974c-0.117-0.477-0.495-0.857-0.974-0.974v0zM24.424 21.565h-0.974v0.974c0.479-0.117 0.857-0.495 0.974-0.974v0zM22.815 22.539v-0.974h-0.974c0.115 0.479 0.492 0.857 0.974 0.974v0zM21.839 20.93h0.974v-0.974c-0.479 0.117-0.857 0.495-0.974 0.974v0zM23.349 11.367v0c-0.070 0-0.135 0.060-0.13 0.128l0.318 3.997c0.008 0.073 0.060 0.13 0.13 0.13h4.039c0.070 0 0.148-0.063 0.13-0.13-0.271-1.016-0.526-3.214-1.177-3.711-0.526-0.401-1.070-0.354-2.393-0.414h-0.917zM17.211 11.391h-2.995c-1.367 0-3.617 2.247-4.206 4.065-0.029 0.089 0.076 0.169 0.169 0.169h6.557c0.094 0 0.156-0.076 0.169-0.169l0.477-3.896c0.008-0.094-0.081-0.169-0.172-0.169v0zM18.508 11.375v0c-0.073 0-0.122 0.057-0.13 0.13l-0.477 3.99c-0.008 0.070 0.060 0.13 0.13 0.13h4.419c0.070 0 0.135-0.060 0.13-0.13l-0.279-3.99c-0.005-0.070-0.060-0.13-0.13-0.13h-3.664zM5.888 18.539c1.495 0 2.708 1.214 2.708 2.708s-1.214 2.708-2.708 2.708c-1.495 0-2.708-1.214-2.708-2.708s1.214-2.708 2.708-2.708v0zM0.471 18.661c0.138-0.063 0.289-0.091 0.453-0.089-0.008-0.854 0.049-1.599 0.247-2.128 0.073-0.305 0.206-0.526 0.383-0.688 0.557-0.497 5.534-0.935 6.583-1.070 1.289-1.26 2.724-2.414 4.253-3.505 0.424-0.359 1.031-0.536 1.797-0.555l12.086-0.010c0.914-0.005 1.617 0.385 2.065 1.263l1.008 2.904 0.229-0.063v-1.13c-0.042-0.378 0.107-0.565 0.396-0.612h1.354c0.372 0.016 0.635 0.203 0.677 0.742v4.016c0.003 0.414-0.148 0.685-0.531 0.742h-1.258c-0.125 0.029-0.086 0.125-0.096 0.258v1.37c-0.091 1.010-0.367 1.792-1.177 1.893h-2.451c0.052-1.188-0.172-2.159-0.716-2.885-1.977-2.641-6.266-1.068-5.977 2.893h-10.531c0.089-1.266-0.151-2.227-0.674-2.917-1.971-2.602-6.557-1.198-6.016 2.997h-1.628c-0.982 0-1.302-3.060-0.477-3.427v0zM23.133 18.539c1.495 0 2.708 1.214 2.708 2.708s-1.214 2.708-2.708 2.708c-1.495 0-2.708-1.214-2.708-2.708s1.211-2.708 2.708-2.708v0z"></path>
</symbol>
<symbol id="icon-car-m" viewBox="0 0 32 32">
<path d="M8.287 19.664c0 1.167-0.946 2.114-2.114 2.114s-2.114-0.946-2.114-2.114c0-1.167 0.946-2.114 2.114-2.114s2.114 0.946 2.114 2.114z"></path>
<path d="M27.707 19.73c0 1.167-0.946 2.114-2.114 2.114s-2.114-0.946-2.114-2.114c0-1.167 0.946-2.114 2.114-2.114s2.114 0.946 2.114 2.114z"></path>
<path d="M31.868 16.955c-0.066 0.132-0.132 0.264-0.33 0.264h-0.727c-0.182 0-0.33-0.148-0.33-0.33s0.148-0.33 0.33-0.33v0h0.793c-0.079-0.24-0.148-0.53-0.194-0.827l-0.004-0.032c-0.107 0.161-0.288 0.265-0.493 0.265-0.012 0-0.025-0-0.037-0.001l0.002 0c-0.017 0.002-0.037 0.004-0.058 0.004-0.258 0-0.468-0.208-0.471-0.466v-0.264c0.025-0.261 0.243-0.463 0.508-0.463 0.007 0 0.014 0 0.021 0l-0.001-0c0.017-0.002 0.036-0.004 0.056-0.004 0.181 0 0.337 0.109 0.405 0.265l0.001 0.003c-0.001-0.039-0.002-0.085-0.002-0.131 0-0.281 0.025-0.555 0.072-0.822l-0.004 0.028-3.765-0.528s-2.642-3.435-9.776-3.435c-3.963 0-7.398 1.651-9.974 3.104-0.419 0.244-0.94 0.509-1.474 0.748l-0.111 0.044c-0.622 0.267-1.371 0.516-2.143 0.705l-0.103 0.021s-3.038 0.528-3.699 1.916c0 0.036-0.030 0.066-0.066 0.066v0h0.991c0.182 0 0.33 0.148 0.33 0.33s-0.148 0.33-0.33 0.33v0h-0.991c-0.066 0-0.132-0.066-0.198-0.066-0.063 0.221-0.1 0.475-0.1 0.738 0 0.506 0.135 0.98 0.371 1.389l-0.007-0.013 2.246 0.264h0.793l0.198-0.066c0-1.386 1.124-2.51 2.51-2.51s2.51 1.124 2.51 2.51v0l14.465-0.198c0.111-1.3 1.194-2.313 2.513-2.313 1.296 0 2.363 0.977 2.506 2.235l0.001 0.012c1.057-0.066 3.633-0.33 3.765-1.519l0.132-0.793c0-0.066-0.066-0.066-0.132-0.132zM16.94 13.917v0.066h-7.926s4.161-2.51 8.521-2.576zM24.338 13.983h-6.803l0.594-2.51v-0.066c3.765 0 5.086 0.594 6.407 1.453z"></path>
</symbol>
<symbol id="icon-car-s" viewBox="0 0 32 32">
<path d="M27.068 16.578c1.404 0 2.542 1.138 2.542 2.542s-1.138 2.542-2.542 2.542c-1.404 0-2.542-1.138-2.542-2.542s1.138-2.542 2.542-2.542v0zM5.99 17.906v0.914h0.914c-0.109-0.448-0.464-0.805-0.914-0.914v0zM6.906 19.417h-0.917v0.914c0.451-0.107 0.805-0.464 0.917-0.914v0zM5.393 20.333v-0.914h-0.914c0.109 0.448 0.466 0.802 0.914 0.914v0zM4.479 18.823h0.914v-0.914c-0.448 0.107-0.805 0.464-0.914 0.914v0zM27.367 17.906v0.914h0.914c-0.109-0.448-0.464-0.805-0.914-0.914v0zM28.281 19.417h-0.914v0.914c0.451-0.107 0.805-0.464 0.914-0.914v0zM26.771 20.333v-0.914h-0.914c0.109 0.448 0.464 0.802 0.914 0.914v0zM25.854 18.823h0.914v-0.914c-0.448 0.107-0.802 0.464-0.914 0.914v0zM12.836 13.667v0c0.409 0.094 0.414 0.148 0.385 0.602-0.010 0.159-0.042 0.245-0.096 0.404l6.049-0.229 0.505-3.352c-3.674-0.216-4.906 0.854-8.044 2.503 0.401-0.018 0.799-0.018 1.201 0.073zM20.604 11.151l-0.656 3.247 6.284-0.255c0.646-0.026 0.758-0.31 0.367-0.854-0.177-0.247-0.375-0.492-0.602-0.734-1.625-1.734-3.242-1.375-5.393-1.404v0zM0.12 17.44h0.193c0.12-0.531 0.357-1.010 0.706-1.44 0.766-0.953 1.115-0.833 2.253-1.039l6.37-1.201c1.414-1.005 3.12-1.901 5.201-2.656 1.93-0.703 3.292-0.771 5.357-0.768 1.182 0.003 2.38 0.073 3.596 0.219 0.617 0.039 1.221 0.122 1.815 0.242 0.711 0.143 1.409 0.341 2.094 0.576l2.552 1.474c0.753 0.435 0.914 0.943 1.010 1.773l0.359 3.068h0.372v1.695c-0.052 0.57-0.276 0.656-0.75 0.656h-0.617c0.24-5.362-7.305-6.279-7.141 0.424h-14.438c0.971-4.622-3.69-6.227-5.979-3.583-0.695 0.805-0.938 1.904-0.875 3.203h-1.669c-0.133-0.063-0.237-0.148-0.315-0.255-0.273-0.372-0.214-1.495-0.193-2.143 0.003-0.174-0.052-0.245 0.099-0.245v0zM5.693 16.578c1.404 0 2.542 1.138 2.542 2.542s-1.138 2.542-2.542 2.542c-1.404 0-2.542-1.138-2.542-2.542s1.138-2.542 2.542-2.542v0z"></path>
</symbol>
<symbol id="icon-plus" viewBox="0 0 32 32">
<path d="M16 30c-7.732 0-14-6.27-14-14s6.268-14 14-14c7.732 0 14 6.27 14 14s-6.268 14-14 14v0zM16 0c-8.837 0-16 7.16-16 16s7.163 16 16 16c8.837 0 16-7.16 16-16s-7.163-16-16-16v0zM22 15h-5v-5c0-0.55-0.447-1-1-1s-1 0.45-1 1v5h-5c-0.553 0-1 0.45-1 1s0.447 1 1 1h5v5c0 0.55 0.447 1 1 1s1-0.45 1-1v-5h5c0.553 0 1-0.45 1-1s-0.447-1-1-1v0z"></path>
</symbol>
<symbol id="icon-arrow_down" viewBox="0 0 24 24">
<path d="M7.406 8.578l4.594 4.594 4.594-4.594 1.406 1.406-6 6-6-6z"></path>
</symbol>
<symbol id="facebook" viewBox="0 0 32 32">
<path d="M19 6h5v-6h-5c-3.86 0-7 3.14-7 7v3h-4v6h4v16h6v-16h5l1-6h-6v-3c0-0.542 0.458-1 1-1z"></path>
</symbol>
<symbol id="instagram" viewBox="0 0 32 32">
<path d="M16 2.881c4.275 0 4.781 0.019 6.462 0.094 1.563 0.069 2.406 0.331 2.969 0.55 0.744 0.288 1.281 0.638 1.837 1.194 0.563 0.563 0.906 1.094 1.2 1.838 0.219 0.563 0.481 1.412 0.55 2.969 0.075 1.688 0.094 2.194 0.094 6.463s-0.019 4.781-0.094 6.463c-0.069 1.563-0.331 2.406-0.55 2.969-0.288 0.744-0.637 1.281-1.194 1.837-0.563 0.563-1.094 0.906-1.837 1.2-0.563 0.219-1.413 0.481-2.969 0.55-1.688 0.075-2.194 0.094-6.463 0.094s-4.781-0.019-6.463-0.094c-1.563-0.069-2.406-0.331-2.969-0.55-0.744-0.288-1.281-0.637-1.838-1.194-0.563-0.563-0.906-1.094-1.2-1.837-0.219-0.563-0.481-1.413-0.55-2.969-0.075-1.688-0.094-2.194-0.094-6.463s0.019-4.781 0.094-6.463c0.069-1.563 0.331-2.406 0.55-2.969 0.288-0.744 0.638-1.281 1.194-1.838 0.563-0.563 1.094-0.906 1.838-1.2 0.563-0.219 1.412-0.481 2.969-0.55 1.681-0.075 2.188-0.094 6.463-0.094zM16 0c-4.344 0-4.887 0.019-6.594 0.094-1.7 0.075-2.869 0.35-3.881 0.744-1.056 0.412-1.95 0.956-2.837 1.85-0.894 0.888-1.438 1.781-1.85 2.831-0.394 1.019-0.669 2.181-0.744 3.881-0.075 1.713-0.094 2.256-0.094 6.6s0.019 4.887 0.094 6.594c0.075 1.7 0.35 2.869 0.744 3.881 0.413 1.056 0.956 1.95 1.85 2.837 0.887 0.887 1.781 1.438 2.831 1.844 1.019 0.394 2.181 0.669 3.881 0.744 1.706 0.075 2.25 0.094 6.594 0.094s4.888-0.019 6.594-0.094c1.7-0.075 2.869-0.35 3.881-0.744 1.050-0.406 1.944-0.956 2.831-1.844s1.438-1.781 1.844-2.831c0.394-1.019 0.669-2.181 0.744-3.881 0.075-1.706 0.094-2.25 0.094-6.594s-0.019-4.887-0.094-6.594c-0.075-1.7-0.35-2.869-0.744-3.881-0.394-1.063-0.938-1.956-1.831-2.844-0.887-0.887-1.781-1.438-2.831-1.844-1.019-0.394-2.181-0.669-3.881-0.744-1.712-0.081-2.256-0.1-6.6-0.1v0z"></path>
<path d="M16 7.781c-4.537 0-8.219 3.681-8.219 8.219s3.681 8.219 8.219 8.219 8.219-3.681 8.219-8.219c0-4.537-3.681-8.219-8.219-8.219zM16 21.331c-2.944 0-5.331-2.387-5.331-5.331s2.387-5.331 5.331-5.331c2.944 0 5.331 2.387 5.331 5.331s-2.387 5.331-5.331 5.331z"></path>
<path d="M26.462 7.456c0 1.060-0.859 1.919-1.919 1.919s-1.919-0.859-1.919-1.919c0-1.060 0.859-1.919 1.919-1.919s1.919 0.859 1.919 1.919z"></path>
</symbol>
<symbol id="youtube" viewBox="0 0 32 32">
<path d="M31.681 9.6c0 0-0.313-2.206-1.275-3.175-1.219-1.275-2.581-1.281-3.206-1.356-4.475-0.325-11.194-0.325-11.194-0.325h-0.012c0 0-6.719 0-11.194 0.325-0.625 0.075-1.987 0.081-3.206 1.356-0.963 0.969-1.269 3.175-1.269 3.175s-0.319 2.588-0.319 5.181v2.425c0 2.587 0.319 5.181 0.319 5.181s0.313 2.206 1.269 3.175c1.219 1.275 2.819 1.231 3.531 1.369 2.563 0.244 10.881 0.319 10.881 0.319s6.725-0.012 11.2-0.331c0.625-0.075 1.988-0.081 3.206-1.356 0.962-0.969 1.275-3.175 1.275-3.175s0.319-2.587 0.319-5.181v-2.425c-0.006-2.588-0.325-5.181-0.325-5.181zM12.694 20.15v-8.994l8.644 4.513-8.644 4.481z"></path>
</symbol>
<symbol id="telegram" viewBox="0 0 32 32">
<path d="M16 0c-8.838 0-16 7.162-16 16s7.162 16 16 16 16-7.163 16-16-7.163-16-16-16zM23.863 10.969l-2.625 12.369c-0.181 0.881-0.712 1.087-1.45 0.681l-4-2.956-1.919 1.869c-0.225 0.219-0.4 0.4-0.8 0.4-0.519 0-0.431-0.194-0.606-0.688l-1.363-4.475-3.956-1.231c-0.856-0.262-0.862-0.85 0.194-1.269l15.412-5.95c0.7-0.319 1.381 0.169 1.113 1.25z"></path>
</symbol>
<symbol id="paperplane" viewBox="0 0 32 32">
<path d="M31.543 0.16c-0.166-0.107-0.355-0.16-0.543-0.16-0.193 0-0.387 0.055-0.555 0.168l-30 20c-0.309 0.205-0.479 0.566-0.439 0.936 0.038 0.369 0.278 0.688 0.623 0.824l7.824 3.131 3.679 6.438c0.176 0.309 0.503 0.5 0.857 0.504 0.004 0 0.007 0 0.011 0 0.351 0 0.677-0.186 0.857-0.486l2.077-3.463 9.695 3.877c0.119 0.048 0.244 0.071 0.371 0.071 0.17 0 0.338-0.043 0.49-0.129 0.264-0.148 0.445-0.408 0.496-0.707l5-30c0.065-0.393-0.109-0.787-0.443-1.004zM3.136 20.777l23.175-15.451-16.85 18.037c-0.089-0.053-0.168-0.123-0.266-0.162l-6.059-2.424zM10.189 24.066c-0.002-0.004-0.005-0.006-0.007-0.010l18.943-20.275-16.149 25.162-2.787-4.877zM25.217 29.609l-8.541-3.416c-0.203-0.080-0.414-0.107-0.623-0.119l13.152-20.388-3.988 23.923z"></path>
</symbol>
  </defs>
</svg>