<svg aria-hidden="true" style="position:absolute;width:0;height:0;overflow:hidden" xmlns="http://www.w3.org/2000/svg">
  <defs>
    <symbol id="icon-card-pay" viewBox="0 0 36 28">
      <path d="M0 23.5V14h36v9.5c0 1.375-1.125 2.5-2.5 2.5h-31A2.507 2.507 0 0 1 0 23.5zM10 20v2h6v-2h-6zm-6 0v2h4v-2H4zM33.5 2C34.875 2 36 3.125 36 4.5V8H0V4.5C0 3.125 1.125 2 2.5 2h31z"/>
    </symbol>
    <symbol id="icon-car-done" viewBox="0 0 32 32">
      <path d="M6.897 11.896v2.139a.31.31 0 0 0 .31.309h.863c.019-.075.049-.146.076-.217.013-.035.022-.072.037-.107.053-.121.115-.237.188-.347.017-.024.037-.045.054-.069.06-.083.124-.163.195-.237.033-.034.068-.063.102-.094a2.065 2.065 0 0 1 .545-.366c.046-.021.091-.043.137-.061.084-.033.172-.059.261-.082.043-.011.084-.025.127-.033.135-.025.272-.042.414-.042s.279.017.414.042c.044.008.084.023.127.033.089.023.177.049.261.082.047.018.092.04.137.061.076.036.149.076.221.12.043.027.085.053.126.083.07.05.135.105.198.163.034.031.069.061.102.094.071.074.135.153.195.237.017.024.037.045.054.069.073.109.135.225.188.347.015.034.024.071.037.107.027.072.057.142.076.217h4.554c.019-.075.049-.146.076-.217.013-.035.022-.072.037-.107.053-.121.115-.237.188-.347.017-.024.037-.045.054-.069.06-.083.124-.163.195-.237.033-.034.068-.063.102-.094a2.065 2.065 0 0 1 .545-.366c.046-.021.09-.043.137-.061.084-.033.172-.059.261-.082.043-.011.084-.025.127-.033.135-.025.272-.042.414-.042s.279.017.414.042c.044.008.084.023.127.033.089.023.177.049.261.082.047.018.092.04.137.061.076.036.149.076.221.12.043.027.085.053.126.083.07.05.135.105.198.163.034.031.07.061.102.094.071.074.135.153.195.237.017.024.038.045.054.069.073.109.135.225.188.347.015.034.024.071.037.107.027.072.057.142.076.217h.863a.31.31 0 0 0 .31-.309v-2.139a.31.31 0 0 0-.31-.31H7.203a.31.31 0 0 0-.31.31zM17.863 8.025a.72.72 0 0 0-.586-.301h-2.104v2.759h4.445l-1.755-2.457zM14.069 7.724h-2.104a.725.725 0 0 0-.587.301l-1.755 2.457h4.445V7.723z"/>
      <path d="M10.207 13.793a1.104 1.104 0 0 0 0 2.206 1.104 1.104 0 0 0 0-2.206zM19.034 13.793a1.104 1.104 0 1 0 .002 2.208 1.104 1.104 0 0 0-.002-2.208zM18.483 0h-7.724v3.31h7.724zM26.207 3.31v13.549c.79.219 1.53.551 2.207.979V1.654c0-.913-.743-1.655-1.655-1.655h-7.172v2.207h5.517c.608 0 1.103.495 1.103 1.103z"/>
      <path d="M17.395 29.793H4.138a1.104 1.104 0 0 1-1.103-1.103V3.311c0-.609.495-1.103 1.103-1.103h5.517V.001H2.483C1.57.001.828.744.828 1.656v28.689c0 .913.742 1.655 1.655 1.655h17.406a8.334 8.334 0 0 1-2.494-2.207z"/>
      <path d="M4.138 3.31v25.379h12.548a8.23 8.23 0 0 1-.962-3.862c0-4.563 3.713-8.276 8.276-8.276.375 0 .741.034 1.103.083V3.31h-5.517c0 .609-.495 1.103-1.103 1.103h-7.724A1.104 1.104 0 0 1 9.656 3.31H4.139zm10.483 23.172H6.345a.552.552 0 1 1 0-1.104h8.276a.552.552 0 1 1 0 1.104zm0-2.758H6.345a.552.552 0 1 1 0-1.104h8.276a.552.552 0 1 1 0 1.104zm0-2.759H6.345a.552.552 0 1 1 0-1.104h8.276a.552.552 0 1 1 0 1.104zm-4.14-13.581a1.827 1.827 0 0 1 1.484-.764h5.311c.588 0 1.143.286 1.484.764l2.213 3.098h1.061c.78 0 1.413.634 1.413 1.414v2.139c0 .779-.634 1.413-1.413 1.413h-.872c-.247.95-1.103 1.655-2.129 1.655s-1.882-.706-2.129-1.655h-4.57c-.247.95-1.103 1.655-2.129 1.655s-1.882-.706-2.129-1.655h-.872a1.415 1.415 0 0 1-1.413-1.413v-2.139c0-.779.634-1.413 1.413-1.413h1.062l2.213-3.098z"/>
      <path d="M24 17.655c-3.955 0-7.172 3.218-7.172 7.172s3.218 7.172 7.172 7.172c3.955 0 7.172-3.218 7.172-7.172S27.955 17.655 24 17.655zm3.763 4.729-3.428 4.926a.553.553 0 0 1-.803.111l-2.641-2.168a.551.551 0 1 1 .699-.852l2.179 1.788 3.087-4.436a.552.552 0 0 1 .906.631z"/>
    </symbol>
    <symbol id="icon-car-time" viewBox="0 0 32 32">
      <path d="M30.621 30.896h-.552v-1.302c0-1.95-1.018-3.723-2.663-4.767 1.645-1.043 2.663-2.817 2.663-4.766v-1.303h.552a.552.552 0 1 0 0-1.104h-9.379v2.406c0 1.95 1.018 3.723 2.663 4.766-1.645 1.044-2.663 2.817-2.663 4.767v2.405h9.379a.552.552 0 1 0 0-1.104zm-8.276-10.835v-1.303h6.621v1.303c0 1.831-1.122 3.475-2.867 4.215h-.886c-1.746-.74-2.867-2.383-2.867-4.215zm6.62 10.835h-6.621v-1.302c0-1.831 1.122-3.475 2.867-4.215h.886c1.746.74 2.867 2.384 2.867 4.215v1.302zM20.321 13.111c.07.05.135.105.198.163.034.031.07.061.102.094.071.074.135.153.195.237.017.024.038.045.053.069.073.109.136.225.189.347.015.034.024.071.037.107.027.072.056.142.076.218h.863a.31.31 0 0 0 .31-.31v-2.139a.31.31 0 0 0-.31-.309H7.205a.31.31 0 0 0-.309.309v2.139c0 .171.139.31.309.31h.864c.019-.076.049-.146.076-.218.013-.035.022-.072.037-.107.053-.121.116-.237.189-.347.016-.024.036-.045.054-.069.06-.083.124-.163.195-.237.032-.034.067-.063.102-.094a2.184 2.184 0 0 1 .323-.246 2.24 2.24 0 0 1 .221-.12c.045-.021.09-.043.137-.061.084-.033.172-.059.261-.081.043-.011.084-.025.127-.034.134-.025.272-.041.414-.041s.279.016.413.041c.044.008.085.023.128.034.089.023.177.048.261.081.047.018.092.04.137.061a2.133 2.133 0 0 1 .545.366c.034.031.069.061.102.094.071.074.135.153.195.237.017.024.037.045.053.069.073.109.136.225.189.347.015.034.024.071.037.107.027.072.056.142.076.218h4.554c.019-.076.049-.146.076-.218.013-.035.022-.072.037-.107.053-.121.116-.237.189-.347.016-.024.036-.045.054-.069.06-.083.124-.163.195-.237.032-.034.067-.063.102-.094a2.065 2.065 0 0 1 .545-.366c.045-.021.09-.043.137-.061.084-.033.172-.059.262-.081.043-.011.084-.025.127-.034.134-.025.272-.041.414-.041s.279.016.413.041c.044.008.085.023.128.034.089.023.177.048.261.081.047.018.092.04.137.061a2.133 2.133 0 0 1 .347.203zM17.276 7.724h-2.104v2.759h4.445l-1.755-2.457a.72.72 0 0 0-.586-.301zM11.965 7.724a.724.724 0 0 0-.586.301l-1.755 2.457h4.445V7.723h-2.104z"/>
      <path d="M10.207 13.793a1.104 1.104 0 0 0 0 2.206 1.104 1.104 0 0 0 0-2.206zM19.035 13.793a1.104 1.104 0 1 0 .002 2.208 1.104 1.104 0 0 0-.002-2.208zM18.483 0h-7.724v3.31h7.724zM26.207 3.31v13.241h2.207V1.654c0-.913-.743-1.655-1.655-1.655h-7.172v2.207h5.517c.609 0 1.103.495 1.103 1.103z"/>
      <path d="M3.034 28.69V3.311c0-.609.495-1.103 1.103-1.103h5.517V.001H2.482C1.569.001.827.744.827 1.656v28.69c0 .913.743 1.655 1.655 1.655h17.655v-2.207h-16a1.104 1.104 0 0 1-1.103-1.104z"/>
      <path d="M20.138 20.061v-3.26c-.324.19-.7.303-1.103.303a2.205 2.205 0 0 1-2.129-1.655h-4.57c-.247.949-1.103 1.655-2.129 1.655s-1.882-.706-2.129-1.655h-.872c-.78 0-1.413-.634-1.413-1.413v-2.139c0-.78.634-1.413 1.413-1.413h1.062l2.213-3.098a1.827 1.827 0 0 1 1.484-.764h5.311c.588 0 1.143.286 1.484.764l2.213 3.098h1.061c.78 0 1.413.634 1.413 1.413v2.139c0 .78-.634 1.413-1.413 1.413h-.872a2.217 2.217 0 0 1-.686 1.103h4.627V3.311h-5.517c0 .609-.495 1.103-1.103 1.103h-7.724a1.104 1.104 0 0 1-1.103-1.103H4.139V28.69h16.065a6.709 6.709 0 0 1 1.94-3.862 6.688 6.688 0 0 1-2.005-4.767zm-5.517 6.422H6.345a.552.552 0 1 1 0-1.104h8.276a.552.552 0 1 1 0 1.104zm0-2.759H6.345a.552.552 0 1 1 0-1.104h8.276a.552.552 0 1 1 0 1.104zm0-2.759H6.345a.552.552 0 1 1 0-1.104h8.276a.552.552 0 1 1 0 1.104z"/>
    </symbol>
    <symbol id="icon-car-check" viewBox="0 0 32 32">
      <path d="M7.207 14.345h.863c.019-.075.049-.146.076-.217.013-.035.022-.072.037-.107.053-.121.115-.237.188-.347.017-.024.037-.045.054-.069.06-.083.124-.163.195-.237.033-.034.068-.063.102-.094a2.065 2.065 0 0 1 .545-.366c.046-.021.091-.043.137-.061.084-.033.172-.059.261-.082.043-.011.084-.025.127-.033.135-.025.272-.042.414-.042s.279.017.414.042c.044.008.084.023.127.033.089.023.177.049.261.082.047.018.092.04.137.061.076.036.149.076.221.12.043.027.085.053.126.083.07.05.135.105.198.163.034.031.069.061.102.094.071.074.135.153.195.237.017.024.037.045.054.069.073.109.135.225.188.347.015.034.024.071.037.107.027.072.057.142.076.217h4.554c.019-.075.049-.146.076-.217.013-.035.022-.072.037-.107.053-.121.115-.237.188-.347.017-.024.037-.045.054-.069.06-.083.124-.163.195-.237.033-.034.068-.063.102-.094a2.065 2.065 0 0 1 .545-.366c.046-.021.09-.043.137-.061.084-.033.172-.059.261-.082.043-.011.084-.025.127-.033.135-.025.272-.042.414-.042s.279.017.414.042c.044.008.084.023.127.033.089.023.177.049.261.082.047.018.092.04.137.061.076.036.149.076.221.12.043.027.085.053.126.083.07.05.135.105.198.163.034.031.07.061.102.094.071.074.135.153.195.237.017.024.038.045.054.069.073.109.135.225.188.347.015.034.024.071.037.107.027.072.057.142.076.217h.863a.31.31 0 0 0 .31-.309v-2.139a.31.31 0 0 0-.31-.31H7.203a.31.31 0 0 0-.31.31v2.139a.31.31 0 0 0 .31.309zM17.863 8.025a.72.72 0 0 0-.586-.301h-2.104v2.759h4.445l-1.755-2.457zM14.069 7.724h-2.104a.725.725 0 0 0-.587.301l-1.755 2.457h4.445V7.723z"/>
      <path d="M10.207 13.793a1.104 1.104 0 0 0 0 2.206 1.104 1.104 0 0 0 0-2.206zM19.035 13.793a1.104 1.104 0 1 0 .002 2.208 1.104 1.104 0 0 0-.002-2.208zM18.483 0h-7.724v3.31h7.724zM26.207 3.31v13.795a7.192 7.192 0 0 1 2.207 1.455V1.655C28.414.742 27.671 0 26.759 0h-7.172v2.207h5.517c.608 0 1.103.495 1.103 1.103z"/>
      <path d="M23.448 30.897a7.12 7.12 0 0 1-3.805-1.103H4.137a1.104 1.104 0 0 1-1.103-1.103V3.312c0-.609.495-1.103 1.103-1.103h5.517V.002H2.482C1.569.002.827.745.827 1.657v28.69c0 .913.743 1.655 1.655 1.655h20.965s.175-1.103 0-1.103z"/>
      <path d="M4.138 28.69h14.147a7.141 7.141 0 0 1-2.009-4.965c0-3.955 3.218-7.172 7.172-7.172.57 0 1.123.074 1.655.201V3.312h-5.517c0 .609-.495 1.103-1.103 1.103h-7.724a1.104 1.104 0 0 1-1.103-1.103H4.139v25.379zm1.655-16.794c0-.779.634-1.413 1.413-1.413h1.062l2.213-3.098a1.827 1.827 0 0 1 1.484-.764h5.311c.588 0 1.143.286 1.484.764l2.213 3.098h1.061c.78 0 1.413.634 1.413 1.413v2.139c0 .779-.634 1.413-1.413 1.413h-.872c-.247.95-1.103 1.655-2.129 1.655s-1.882-.706-2.129-1.655h-4.57c-.247.95-1.103 1.655-2.129 1.655s-1.882-.706-2.129-1.655h-.872a1.415 1.415 0 0 1-1.413-1.413v-2.139zm.552 7.966h8.276a.552.552 0 1 1 0 1.104H6.345a.552.552 0 1 1 0-1.104zm0 2.759h8.276a.552.552 0 1 1 0 1.104H6.345a.552.552 0 1 1 0-1.104zm0 2.758h8.276a.552.552 0 1 1 0 1.104H6.345a.552.552 0 1 1 0-1.104z"/>
      <path d="m31.021 31.069-3.097-3.259a6.04 6.04 0 0 0 1.594-4.085c0-3.346-2.723-6.069-6.069-6.069s-6.069 2.723-6.069 6.069a6.076 6.076 0 0 0 6.069 6.069 6.026 6.026 0 0 0 3.66-1.24l3.112 3.274a.548.548 0 0 0 .78.02.55.55 0 0 0 .02-.779zm-7.573-2.379c-2.738 0-4.965-2.227-4.965-4.965s2.227-4.965 4.965-4.965 4.965 2.227 4.965 4.965-2.227 4.965-4.965 4.965z"/>
    </symbol>
    <symbol id="icon-arrow" viewBox="0 0 24 24">
<path d="M5.859 4.125l2.156-2.109 9.984 9.984-9.984 9.984-2.156-2.109 7.922-7.875z"></path>
</symbol>
<symbol id="icon-car-paint" viewBox="0 0 32 32">
<path d="M29.058 27.813c-3.104 0-4.026-2.466-4.271-3.451l0.886-0.306c0.197-0.070 0.336-0.255 0.336-0.472 0-0.059-0.010-0.115-0.029-0.167l0.001 0.003-2.75-7.929h3.281c0.276 0 0.5-0.224 0.5-0.5v0-0.846h1.096v0.834c0 0.276 0.224 0.5 0.5 0.5s0.5-0.224 0.5-0.5v0-2.666c0-0.276-0.224-0.5-0.5-0.5s-0.5 0.224-0.5 0.5v0 0.834h-1.095v-2.169c0-0.276-0.224-0.5-0.5-0.5v0h-8.172v-1.485c1.29-0.521 2.184-1.762 2.188-3.212v-1.594h0.52c0.276 0 0.5-0.224 0.5-0.5s-0.224-0.5-0.5-0.5v0h-7.953c-0.276 0-0.5 0.224-0.5 0.5s0.224 0.5 0.5 0.5v0h0.521v1.593c0.003 1.45 0.897 2.691 2.164 3.204l0.023 0.008v1.485h-5.291c-0.276 0-0.5 0.224-0.5 0.5v0 0.227l-2.214 1.278h-0.819c-0.276 0-0.5 0.224-0.5 0.5s0.224 0.5 0.5 0.5v0h0.819l2.214 1.278v0.227c0 0.276 0.224 0.5 0.5 0.5v0h3.506v4.616l-1.156 1.156c-0.090 0.090-0.146 0.215-0.146 0.353 0 0.276 0.224 0.5 0.5 0.5 0.138 0 0.263-0.056 0.354-0.147v0l1.305-1.302c0.012-0.012 0.023-0.024 0.034-0.037l0.012-0.017 0.016-0.023c0.005-0.007 0.009-0.014 0.013-0.021l0.012-0.021 0.011-0.023c0.003-0.008 0.007-0.014 0.010-0.022s0.006-0.015 0.008-0.023c0.003-0.006 0.006-0.014 0.008-0.023l0-0.001c0-0.008 0.004-0.015 0.006-0.023s0.004-0.016 0.006-0.024 0.003-0.018 0.004-0.027 0-0.014 0-0.021c0-0.007 0.001-0.016 0.001-0.025s-0-0.017-0.001-0.026l0 0.001v-4.823h2.864c0.901 0 1.668 0.576 1.954 1.379l0.005 0.015 2.681 7.734c0.070 0.197 0.255 0.336 0.472 0.336 0.059 0 0.115-0.010 0.167-0.029l-0.003 0.001 0.688-0.238c0.181 0.665 0.44 1.247 0.774 1.777l-0.016-0.027c0.682 1.082 2.009 2.375 4.458 2.375 0.276 0 0.5-0.224 0.5-0.5s-0.224-0.5-0.5-0.5v0zM16.804 9.226h0.018c0.028 0 0.056 0.004 0.084 0.005 0.014 0 0.027 0 0.041 0 0.041 0 0.083 0 0.125 0s0.084 0 0.125 0h0.038c0.029 0 0.058 0 0.087-0.005h0.017v1.25h-0.537zM14.617 5.781v-1.593h4.912v1.593c0 0 0 0.001 0 0.001 0 1.355-1.099 2.454-2.454 2.454-0.128 0-0.254-0.010-0.377-0.029l0.014 0.002c-0.108-0.016-0.201-0.035-0.292-0.061l0.016 0.004c-1.054-0.292-1.815-1.242-1.818-2.37v-0zM8.933 12.984l1.080-0.625v1.25zM22.392 21.191l-0.892-2.577c0.089 0.040 0.167 0.087 0.237 0.142l-0.002-0.002c0.282 0.216 0.527 0.578 0.67 0.991 0.199 0.579 0.158 1.126-0.012 1.446zM22.758 22.246c0.736-0.487 1-1.648 0.59-2.828-0.209-0.602-0.566-1.119-1.006-1.457-0.382-0.293-0.806-0.429-1.207-0.398l-0.349-1.007c-0.43-1.213-1.567-2.066-2.903-2.067l-6.869-0.006s0-0.006 0-0.010v-2.979c0-0.003 0-0.006 0-0.010v-0.006h15v3.011h-3.482c-0 0-0 0-0 0-0.276 0-0.5 0.224-0.5 0.5 0 0.059 0.010 0.115 0.029 0.167l-0.001-0.004 2.813 8.121-0.821 0.284h-0.004l-0.746 0.258zM4.688 13.484h-1.746c-0.276 0-0.5-0.224-0.5-0.5s0.224-0.5 0.5-0.5v0h1.746c0.276 0 0.5 0.224 0.5 0.5s-0.224 0.5-0.5 0.5v0zM5.556 11.609c-0.088 0.151-0.249 0.25-0.433 0.25-0.092 0-0.178-0.025-0.252-0.068l0.002 0.001-1.51-0.875c-0.157-0.086-0.261-0.251-0.261-0.439 0-0.276 0.224-0.5 0.5-0.5 0.097 0 0.187 0.027 0.264 0.075l1.508 0.874c0.15 0.088 0.249 0.249 0.249 0.432 0 0.093-0.025 0.179-0.069 0.254l0.001-0.002zM5.556 14.359c0.042 0.072 0.067 0.158 0.067 0.25 0 0.184-0.099 0.345-0.247 0.432l-0.002 0.001-1.51 0.875c-0.072 0.042-0.158 0.067-0.25 0.067-0.276 0-0.5-0.224-0.5-0.5 0-0.184 0.1-0.345 0.248-0.432l0.002-0.001 1.51-0.875c0.071-0.042 0.157-0.066 0.249-0.066 0.184 0 0.344 0.099 0.431 0.247l0.001 0.002z"></path>
</symbol>
<symbol id="icon-car-polishing" viewBox="0 0 32 32">
<path stroke-linejoin="round" stroke-linecap="round" stroke-miterlimit="10" stroke-width="2" d="M31 22.6c-0.9 0.2-1.8 0-2.1-0.6-0.4-0.6-0.1-1.4 0.5-2.1-0.7-0.7-1.7-1.3-2.7-1.6-0.3 0.9-0.9 1.5-1.6 1.5s-1.3-0.6-1.6-1.5c-1 0.3-2 0.8-2.7 1.6 0.6 0.7 0.9 1.5 0.5 2.1s-1.2 0.8-2.1 0.6c-0.1 0.5-0.2 1-0.2 1.6s0.1 1.1 0.2 1.6c0.9-0.2 1.8 0 2.1 0.6 0.4 0.6 0.1 1.4-0.5 2.1 0.7 0.7 1.7 1.3 2.7 1.6 0.3-0.9 0.9-1.5 1.6-1.5s1.3 0.6 1.6 1.5c1-0.3 2-0.8 2.7-1.6-0.6-0.7-0.9-1.5-0.5-2.1s1.2-0.8 2.1-0.6c0.1-0.5 0.2-1 0.2-1.6s-0.1-1.1-0.2-1.6z"></path>
<path stroke-linejoin="round" stroke-linecap="round" stroke-miterlimit="10" stroke-width="2" d="M25 24v0"></path>
<path stroke-linejoin="round" stroke-linecap="round" stroke-miterlimit="10" stroke-width="2" d="M24 13h-20l2-4.6c0.6-1.4 2-2.4 3.6-2.4h8.7c1.6 0 3 1 3.7 2.4l2 4.6z"></path>
<path stroke-linejoin="round" stroke-linecap="round" stroke-miterlimit="10" stroke-width="2" d="M8 23h-6v2c0 1.1 0.9 2 2 2h2c1.1 0 2-0.9 2-2v-2z"></path>
<path stroke-linejoin="round" stroke-linecap="round" stroke-miterlimit="10" stroke-width="2" d="M1 12h3.4"></path>
<path stroke-linejoin="round" stroke-linecap="round" stroke-miterlimit="10" stroke-width="2" d="M24 12h3"></path>
<path stroke-linejoin="round" stroke-linecap="round" stroke-miterlimit="10" stroke-width="2" d="M19 23h-10l1.4-2.9c0.3-0.7 1-1.1 1.8-1.1h3.5c0.8 0 1.5 0.4 1.8 1.1l1.5 2.9z"></path>
<path stroke-linejoin="round" stroke-linecap="round" stroke-miterlimit="10" stroke-width="2" d="M4 18h3"></path>
<path stroke-linejoin="round" stroke-linecap="round" stroke-miterlimit="10" stroke-width="2" d="M19.3 23h-16.3c-1.1 0-2-0.9-2-2v-4c0-2.2 1.8-4 4-4h18c2.2 0 4 1.8 4 4v1.3"></path>
</symbol>
<symbol id="icon-vacuum-cleaner" viewBox="0 0 32 32">
<path d="M14.75 25.45c0.9 0 1.7-0.75 1.7-1.7s-0.75-1.7-1.7-1.7-1.7 0.75-1.7 1.7 0.8 1.7 1.7 1.7zM14.75 22.95c0.45 0 0.8 0.35 0.8 0.8s-0.35 0.8-0.8 0.8-0.8-0.35-0.8-0.8 0.35-0.8 0.8-0.8z"></path>
<path d="M30.4 29h-1.9v-24c0-2.9-2.1-5-5-5s-5 2.1-5 5v7c0 0.95-0.55 1.5-1.5 1.5-1 0-1.5-0.5-1.5-1.55v-0.95c0-3-2.050-4.95-5-4.95-3.45 0-5 2.45-5 4.95v6.25c-3 0.8-5.5 3.25-5.5 6.75 0 0.75 0.15 1.6 0.5 2.65 0 0.1 0 0.25 0 0.35 0 2.75 2.2 5 4.95 5 0.050 0 0.050 0 0.050 0v0h17c0.050 0 0.050 0 0.1 0h7.8c1 0 1.6-0.55 1.6-1.5s-0.6-1.5-1.6-1.5zM6.5 11c0-1.95 1.050-4 4-4 2.4 0 4 1.6 4 3.95v1c0 1.6 0.95 2.55 2.5 2.55 1.5 0 2.5-1 2.5-2.5v-7c0-2.35 1.65-4 4-4s4 1.65 4 4v3h-1.5v-3c0-1.6-0.9-2.5-2.5-2.5-1.55 0-2.5 0.95-2.5 2.5v6.5c0 2.15-1.25 4.5-4 4.5-2.35 0-4-1.65-4-4v-1c0-1.6-0.9-2.5-2.5-2.5-1.15 0-2.5 0.45-2.5 2.5v6c0 0-0.35 0-0.5 0-0.35 0-0.5 0.050-1 0.1v-6.1zM27.5 9v20h-1.5v-20h1.5zM1 24c0-3.7 3.35-6 6.5-6 9.5 0 13.25 6.6 13.9 10h-11c0.050-0.3 0.1-0.65 0.1-1 0-2.75-2.25-5-5-5-1.95 0-3.6 1.1-4.45 2.7-0.050-0.25-0.050-0.5-0.050-0.7zM5.5 31c-2.2 0-4-1.8-4-4s1.8-4 4-4 4 1.8 4 4-1.8 4-4 4zM10.050 29h12.45c0-3.85-4-11.2-13.5-11.95v-6.050c0-1.1 0.4-1.5 1.5-1.5 1.050 0 1.5 0.45 1.5 1.5v1c0 2.9 2.1 5 5 5 3.3 0 5-2.75 5-5.5v-6.5c0-1 0.5-1.5 1.5-1.5 1.050 0 1.5 0.45 1.5 1.5v24h-2.4c-1 0-1.6 0.55-1.6 1.5 0 0.2 0.050 0.35 0.050 0.5h-12.55c0.65-0.5 1.25-1.2 1.55-2zM30.4 31h-7.8c-0.55 0-0.6-0.25-0.6-0.5s0.050-0.5 0.6-0.5h7.8c0.55 0 0.6 0.25 0.6 0.5s-0.050 0.5-0.6 0.5z"></path>
</symbol>
<symbol id="icon-arrow-right2" viewBox="0 0 32 32">
<path d="M19.414 27.414l10-10c0.781-0.781 0.781-2.047 0-2.828l-10-10c-0.781-0.781-2.047-0.781-2.828 0s-0.781 2.047 0 2.828l6.586 6.586h-19.172c-1.105 0-2 0.895-2 2s0.895 2 2 2h19.172l-6.586 6.586c-0.39 0.39-0.586 0.902-0.586 1.414s0.195 1.024 0.586 1.414c0.781 0.781 2.047 0.781 2.828 0z"></path>
</symbol>
  </defs>
</svg>